<svg xmlns="http://www.w3.org/2000/svg" width="56.659" height="60" viewBox="0 0 56.659 60">
  <g id="budget" transform="translate(-24.997 -11.318)">
    <path id="Path_190" data-name="Path 190" d="M278.094,296.361a11.341,11.341,0,0,1,9.485-11.174,11.324,11.324,0,1,0,0,22.348A11.342,11.342,0,0,1,278.094,296.361Z" transform="translate(-218.839 -240.158)" fill="rgba(0,137,206,0.45)"/>
    <path id="Path_191" data-name="Path 191" d="M276.585,302.445a12.176,12.176,0,1,0-12.176-12.176A12.176,12.176,0,0,0,276.585,302.445Zm0-22.881a10.705,10.705,0,1,1-10.705,10.7A10.7,10.7,0,0,1,276.585,279.563Z" transform="translate(-210.058 -234.065)" fill="#0089ce"/>
    <path id="Path_192" data-name="Path 192" d="M334.893,320.631h-.047a2.58,2.58,0,0,1-2.554-2.576.736.736,0,0,0-.736-.736.721.721,0,0,0-.718.736,4,4,0,0,0,3.33,3.98v1.3a.736.736,0,0,0,1.471,0v-1.3a4.05,4.05,0,0,0-.761-8.029,2.577,2.577,0,1,1,2.57-2.577.736.736,0,0,0,.736.736.75.75,0,0,0,.752-.736,4.081,4.081,0,0,0-3.3-3.98V306.3a.736.736,0,0,0-1.471,0v1.153a4,4,0,0,0-3.33,3.98,4.046,4.046,0,0,0,4.04,4.049,2.577,2.577,0,0,1,.015,5.154Z" transform="translate(-268.341 -258.165)" fill="#0089ce"/>
    <path id="Path_193" data-name="Path 193" d="M29.157,28.285a4.156,4.156,0,0,0,3.356-1.706l5.045,3.513a4.16,4.16,0,1,0,8.135.512l5.289-4.461a4.156,4.156,0,0,0,6.889-4.363L62.7,17.357a4.156,4.156,0,1,0-.45-1.879c0,.1,0,.191.011.286L57.088,20.5a4.158,4.158,0,0,0-6.923,4.406l-4.983,4.2a4.155,4.155,0,0,0-6.981-.364L33.164,25.24a4.159,4.159,0,1,0-4.007,3.045Zm37.249-15.5a2.688,2.688,0,1,1-2.688,2.688A2.688,2.688,0,0,1,66.406,12.79Zm-12.416,7.8A2.688,2.688,0,1,1,51.3,23.274a2.688,2.688,0,0,1,2.688-2.688Zm-12.416,7.9a2.688,2.688,0,1,1-2.688,2.688,2.688,2.688,0,0,1,2.688-2.688ZM29.157,21.437a2.688,2.688,0,1,1-2.688,2.688A2.688,2.688,0,0,1,29.157,21.437Z" transform="translate(0 0)" fill="#343a40"/>
    <path id="Path_194" data-name="Path 194" d="M339.479,132.269V114.753A.7.7,0,0,0,338.8,114h-6.064a.751.751,0,0,0-.736.753v17.516h1.471v-16.8h4.536v16.8Z" transform="translate(-269.362 -90.092)" fill="#343a40"/>
    <path id="Path_195" data-name="Path 195" d="M238.477,190.732V177.794a.769.769,0,0,0-.712-.794H231.7a.761.761,0,0,0-.7.794v17.9a.661.661,0,0,0,.7.677h2.485V194.9H232.47V178.471h4.536v12.261Z" transform="translate(-180.743 -145.368)" fill="#343a40"/>
    <path id="Path_196" data-name="Path 196" d="M136.479,243.736a.736.736,0,0,0-.736-.736h-6.008a.736.736,0,0,0-.736.736v9.931a.736.736,0,0,0,.736.736h6.008a.736.736,0,0,0,.736-.736Zm-6.008.736h4.659v8.337h-4.659Z" transform="translate(-91.251 -203.276)" fill="#343a40"/>
    <path id="Path_197" data-name="Path 197" d="M35.479,185.736a.736.736,0,0,0-.736-.736H28.736a.736.736,0,0,0-.736.736v16.92a.736.736,0,0,0,.736.736h6.008a.736.736,0,0,0,.736-.736ZM34.13,201.92H29.471V186.471H34.13Z" transform="translate(-2.634 -152.387)" fill="#343a40"/>
    <path id="Path_198" data-name="Path 198" d="M255.555,284.255a15.122,15.122,0,1,0-15.115-15.118A15.122,15.122,0,0,0,255.555,284.255ZM243.1,263.564a13.776,13.776,0,0,1,3.437-4.661,13.609,13.609,0,1,1-3.437,4.661Z" transform="translate(-189.028 -212.937)" fill="#0089ce"/>
  </g>
</svg>
