<?xml version="1.0" encoding="utf-8"?>
<!-- Generator: Adobe Illustrator 17.1.0, SVG Export Plug-In . SVG Version: 6.00 Build 0)  -->
<!DOCTYPE svg PUBLIC "-//W3C//DTD SVG 1.1//EN" "http://www.w3.org/Graphics/SVG/1.1/DTD/svg11.dtd">
<svg version="1.1" id="Layer_1" xmlns="http://www.w3.org/2000/svg" xmlns:xlink="http://www.w3.org/1999/xlink" x="0px" y="0px"
	 viewBox="0 0 76.7 72" enable-background="new 0 0 76.7 72" xml:space="preserve">
<g id="business-and-finance_1_" transform="translate(-10 -25)">
	<path id="Path_18" fill="#0089CE" d="M85.7,75.3H69.2V64c0-0.5-0.4-0.9-0.9-0.9H49.4V50.2c0-0.5-0.4-0.9-0.9-0.9H30.3V35.5
		c0-0.5-0.4-0.9-0.9-0.9H11.5c-0.5,0-0.9,0.4-0.9,0.9L10,96.1c0,0.5,0.4,0.9,0.9,0.9c0,0,0,0,0,0h74.8c0.5,0,0.9-0.4,0.9-0.9V76.3
		C86.7,75.8,86.3,75.3,85.7,75.3z M67.4,65v11.3l-0.2,18.9H49.4V65H67.4z M47.6,51.1v44H30.3v-44L47.6,51.1z M12.4,36.5h15.9v58.7
		H11.9L12.4,36.5z M84.8,95.1H69l0.2-17.9h15.6V95.1z"/>
	<path id="Path_19" fill="#343A40" d="M86.1,63.3c-2.4-0.9-4.7-1.8-7-2.8c-16.3-7.3-30.8-18.6-43.2-33.6h5.8c0.2,0,0.4-0.1,0.6-0.2
		c0.2-0.2,0.3-0.4,0.3-0.7c0-0.5-0.4-0.9-0.9-0.9h-7.8h0h-0.1l0,0l0,0l0,0l0,0l0,0l0,0l0,0l0,0l0,0l0,0l0,0l0,0l0,0c0,0,0,0,0,0l0,0
		l0,0c-0.1,0.1-0.1,0.1-0.1,0.2l0,0c0,0,0,0,0,0s0,0,0,0s0,0,0,0c0,0.1,0,0.1-0.1,0.2c0,0,0,0,0,0s0,0,0,0s0,0,0,0.1v7.9
		c0,0.5,0.4,0.9,0.9,0.9c0.2,0,0.4-0.1,0.5-0.2c0.3-0.2,0.4-0.5,0.4-0.8v-5.2c12.5,15,27.1,26.3,43.5,33.6c2.3,1,4.7,2,7.1,2.9
		c0.5,0.2,1-0.1,1.2-0.5S86.6,63.5,86.1,63.3C86.1,63.3,86.1,63.3,86.1,63.3L86.1,63.3z"/>
</g>
</svg>
