<?xml version="1.0" encoding="utf-8"?>
<!-- Generator: Adobe Illustrator 17.1.0, SVG Export Plug-In . SVG Version: 6.00 Build 0)  -->
<!DOCTYPE svg PUBLIC "-//W3C//DTD SVG 1.1//EN" "http://www.w3.org/Graphics/SVG/1.1/DTD/svg11.dtd">
<svg version="1.1" id="Layer_1" xmlns="http://www.w3.org/2000/svg" xmlns:xlink="http://www.w3.org/1999/xlink" x="0px" y="0px"
	 viewBox="0 0 55.4 72" enable-background="new 0 0 55.4 72" xml:space="preserve">
<g id="business-and-finance" transform="translate(-85.847 -34.699)">
	<path id="Path_9" fill="#D4E1F4" d="M125.5,84L125.5,84c-0.4-0.3-0.8-0.4-1.2-0.6C124.7,83.6,125.1,83.8,125.5,84z"/>
	<path id="Path_11" fill="#343A40" d="M90.1,98.6c0,1.5,1.2,2.6,2.6,2.6c2.4,0,4.6-0.9,6.3-2.6l0,0c0.7-0.7,1.7-1.2,2.8-1.3
		c0.5,0,0.9-0.5,0.9-1.1c0-0.5-0.5-0.9-1.1-0.9c0,0,0,0,0,0c-1.5,0.1-2.9,0.8-4,1.9l0,0c-1.3,1.3-3.1,2.1-4.9,2
		c-0.4,0-0.7-0.3-0.7-0.7c0,0,0,0,0,0c0-1.3,0.4-2.6,1-3.7c0.4-0.7,0.4-1.5-0.1-2.1c-4.7-6-6.3-13.9-4.3-21.3
		c2-7.5,7.4-13.6,14.5-16.5c3.4,0.8,6.9,1.2,10.4,1.2c2.3,0,4.6-0.1,6.9-0.5c-1.2,1.8-2,3.8-2.4,5.8c-0.1,0.5,0.2,1,0.7,1.2
		s1.1-0.2,1.2-0.7c0,0,0,0,0,0c0.5-2.2,1.4-4.2,2.7-6l0.4,0.6l0,0c1.7,2.8,2.9,5.9,3.6,9.1c0.1,0.4,0.5,0.8,1,0.8c0.1,0,0.1,0,0.2,0
		c0.5-0.1,0.9-0.6,0.7-1.2c-0.8-3.4-2-6.7-3.8-9.7l0-0.1c0,0,0,0,0-0.1l-0.2-0.2c6.9,3.1,12,9.1,13.9,16.4c2,7.4,0.4,15.4-4.5,21.4
		l0,0c-0.5,0.6-0.6,1.5-0.2,2.2c0.6,1,0.9,2.2,0.9,3.4c0,0.4-0.3,0.7-0.7,0.7c-1.9,0-3.6-0.7-4.9-2l-0.1-0.1
		c-0.9-0.9-2.2-1.6-3.5-1.8c-0.5-0.1-1,0.3-1.1,0.8c-0.1,0.5,0.3,1,0.8,1.1c0,0,0,0,0,0c0.9,0.1,1.7,0.6,2.4,1.2l0.1,0.1
		c1.7,1.7,3.9,2.6,6.3,2.6l0,0c1.4,0,2.6-1.2,2.6-2.6c0-1.5-0.4-3-1.1-4.3c0,0,0,0,0-0.1l0,0c5.2-6.5,7-15.1,4.9-23.1
		c-2-7.4-7-13.6-13.9-17.1c0.9-0.4,1.5-1.2,1.5-2.1v-2.2c0,0,0,0,0,0s0,0,0-0.1c0-0.9-0.7-1.9-5.5-2.5c0.8-0.8,1.5-1.7,2.1-2.7
		l3-5.8c0.2-0.5,0.1-1.1-0.4-1.3c-0.3-0.1-0.6-0.1-0.9,0c-1.6,0.8-3.5,0-4.9-1c-2.7-1.8-6-2.1-9-0.9c-1.6,0.6-3,1.7-3.9,3.2
		c-4.4,2-6.9-0.9-7-1.1c-0.3-0.4-1-0.5-1.4-0.1c-0.3,0.3-0.5,0.7-0.3,1.1l2.1,5.1c0.6,1.3,1.4,2.5,2.5,3.5c-4.4,0.6-5.1,1.5-5.1,2.4
		c0,0,0,0,0,0.1s0,0,0,0v2.2c0.1,0.9,0.7,1.8,1.5,2.1c-6.8,3.5-11.9,9.6-13.9,17c-2.2,8-0.5,16.5,4.6,23
		C90.6,95.4,90.1,97,90.1,98.6z M120.1,37.9c1.4,1,3,1.5,4.6,1.6l-2,3.9c-0.7,1.5-1.9,2.7-3.4,3.4c-0.1,0-0.1,0.1-0.2,0.1
		c-0.8,0.4-1.6,0.7-2.5,0.8l1.6-8.4c0.1-0.4-0.1-0.7-0.3-0.9c-1.5-1-3.3-1.4-5-1.2C115.3,36.3,118,36.5,120.1,37.9z M103.5,42.9
		l-0.9-2.1c2.2,0.8,4.6,0.6,6.6-0.5c0.1,0,0.1,0,0.2-0.1c3.6-1.7,5.9-1,6.9-0.5l-1.6,8.2H111c-1.3,0-2.5-0.3-3.6-0.9
		c0,0-0.1-0.1-0.1-0.1C105.6,46.1,104.2,44.6,103.5,42.9L103.5,42.9z M106.7,48.8c1.4,0.6,2.8,1,4.3,1h4.5c1.5,0,3-0.3,4.4-1
		c1.7,0.1,3.4,0.4,5.1,0.8c-3.8,0.8-7.7,1.1-11.6,1c-3.9,0.1-7.8-0.2-11.6-1C103.5,49.2,105.1,49,106.7,48.8L106.7,48.8z"/>
	<g id="Group_2" transform="translate(99.59 74.82)">
		<path id="Path_12" fill="#0089CE" d="M13.7,31.9c0.1,0,0.2,0,0.3,0c2.5-0.8,4.8-1.9,6.9-3.4c4.6-3.2,7-7.5,7-12.5V8.5
			c0-0.4-0.2-0.7-0.6-0.9l-0.1,0c-4.5-1.9-8.8-4.4-12.7-7.3c-0.3-0.3-0.8-0.3-1.2,0C9.4,3.1,5.2,5.6,0.7,7.5l-0.1,0
			C0.2,7.7,0,8.1,0,8.5V16c0,4.9,2.3,9.2,6.8,12.4c2,1.5,4.3,2.6,6.7,3.4C13.5,31.9,13.6,31.9,13.7,31.9L13.7,31.9z M2,16V9.1
			c4.2-1.9,8.3-4.2,12-6.9c3.7,2.7,7.8,5.1,12,6.9V16c0,4.3-2.1,7.9-6.1,10.8c-1.9,1.3-3.9,2.3-6.1,3.1C11.9,29.3,2,25.5,2,16z"/>
		<path id="Path_13" fill="#0089CE" d="M19.3,12c-0.4-0.4-1-0.4-1.4,0l-5.8,5.8L10,15.6c-0.4-0.4-1-0.4-1.4,0c-0.4,0.4-0.4,1,0,1.4
			c0,0,0,0,0,0l2.8,2.8c0.4,0.4,1,0.4,1.4,0l6.5-6.5C19.7,13,19.7,12.4,19.3,12C19.3,12,19.3,12,19.3,12L19.3,12z"/>
	</g>
</g>
<path fill="#343A40" d="M76.3,31.8"/>
</svg>
