<svg xmlns="http://www.w3.org/2000/svg" width="76.676" height="72" viewBox="0 0 76.676 72">
  <g id="business-and-finance_1_" data-name="business-and-finance (1)" transform="translate(-10 -25)">
    <g id="Group_3" data-name="Group 3" transform="translate(11.879 36.479)">
      <path id="Path_14" data-name="Path 14" d="M263.039,281.463h4.675v30.162h-4.675Z" transform="translate(-225.484 -252.974)" fill="rgba(0,137,206,0.45)"/>
      <path id="Path_15" data-name="Path 15" d="M140.009,192.7h4.675v44h-4.675Z" transform="translate(-121.627 -178.04)" fill="rgba(0,137,206,0.45)"/>
      <path id="Path_16" data-name="Path 16" d="M22.63,98.656l-.571,58.651h4.675l.571-58.651Z" transform="translate(-22.059 -98.656)" fill="rgba(0,137,206,0.45)"/>
      <path id="Path_17" data-name="Path 17" d="M388.805,360.02l-.228,17.919h4.675l.228-17.919Z" transform="translate(-331.457 -319.288)" fill="rgba(0,137,206,0.45)"/>
    </g>
    <path id="Path_18" data-name="Path 18" d="M85.74,127.388h-16.5V116.08a.935.935,0,0,0-.935-.935H49.434v-12.9a.935.935,0,0,0-.935-.935H30.261V87.591a.935.935,0,0,0-.935-.935h-17.8a.935.935,0,0,0-.935.926L10,148.1a.935.935,0,0,0,.935.944H85.74a.935.935,0,0,0,.935-.935V128.323a.935.935,0,0,0-.935-.935ZM67.369,117.016v11.308l-.24,18.854H49.434V117.016Zm-19.8-13.833v43.995h-17.3V103.182ZM12.45,88.526H28.391v58.651H11.879ZM84.8,147.177H69l.228-17.919H84.8Z" transform="translate(0 -52.047)" fill="#0089ce"/>
    <path id="Path_19" data-name="Path 19" d="M210.172,63.275c-2.366-.865-4.731-1.823-7.029-2.849-16.294-7.273-30.824-18.557-43.216-33.556h5.782a.935.935,0,1,0,0-1.87h-7.75l-.032,0-.055,0-.043.006-.048.007-.046.011-.043.011-.047.016-.04.015-.046.021-.037.018-.046.027-.033.02-.046.033-.025.018,0,0c-.014.011-.027.024-.04.036l-.03.027-.022.024a.931.931,0,0,0-.137.188l0,0c-.008.016-.016.031-.022.047s-.012.024-.017.037,0,.013-.007.019a.93.93,0,0,0-.054.2c0,.014,0,.027-.006.041s0,.024,0,.035,0,.039,0,.059v7.86a.935.935,0,0,0,1.87,0v-5.24C171.382,43.528,186,54.822,202.38,62.134c2.338,1.044,4.743,2.018,7.149,2.9a.935.935,0,1,0,.642-1.756Z" transform="translate(-124.111)" fill="#343a40"/>
  </g>
</svg>
