<svg xmlns="http://www.w3.org/2000/svg" width="55.36" height="72" viewBox="0 0 55.36 72">
  <g id="business-and-finance" transform="translate(-85.847 -34.699)">
    <path id="Path_9" data-name="Path 9" d="M323.608,334.659v-.081q-.592-.26-1.177-.535Q323.016,334.357,323.608,334.659Z" transform="translate(-198.099 -250.65)" fill="#d4e1f4"/>
    <path id="Path_10" data-name="Path 10" d="M185.585,310.23v-6.878a63.9,63.9,0,0,0,11.542-6.6q-1.431-.935-2.812-1.945a63.9,63.9,0,0,1-11.983,6.916V308.6c0,8.34,7.745,12.3,10.808,13.536C189.718,320.075,185.585,316.322,185.585,310.23Z" transform="translate(-80.79 -217.798)" fill="rgba(0,137,206,0.4)"/>
    <path id="Path_11" data-name="Path 11" d="M90.112,98.649a2.637,2.637,0,0,0,2.637,2.627,8.869,8.869,0,0,0,6.316-2.617l.017-.017a4.525,4.525,0,0,1,2.763-1.306.976.976,0,1,0-.187-1.943A6.479,6.479,0,0,0,97.7,97.26l-.016.016a6.932,6.932,0,0,1-4.938,2.046.675.675,0,0,1-.685-.677,6.967,6.967,0,0,1,1.03-3.661,1.888,1.888,0,0,0-.122-2.147,24.014,24.014,0,0,1-4.3-21.289,24.988,24.988,0,0,1,14.506-16.531,42.486,42.486,0,0,0,10.359,1.157,49.474,49.474,0,0,0,6.9-.46,17.289,17.289,0,0,0-2.408,5.847.976.976,0,1,0,1.91.4A15.366,15.366,0,0,1,122.607,56l.393.57.021.036a31.789,31.789,0,0,1,3.581,9.128.976.976,0,0,0,.951.76.987.987,0,0,0,.217-.024.976.976,0,0,0,.735-1.168,33.733,33.733,0,0,0-3.8-9.686l-.041-.07c-.011-.019-.023-.038-.036-.056l-.163-.237a24.979,24.979,0,0,1,13.947,16.389,24.067,24.067,0,0,1-4.484,21.407l-.008.01a2,2,0,0,0-.2,2.214,6.981,6.981,0,0,1,.86,3.379.682.682,0,0,1-.693.666,6.933,6.933,0,0,1-4.929-2.046l-.08-.08a6.288,6.288,0,0,0-3.5-1.766.976.976,0,1,0-.289,1.93,4.322,4.322,0,0,1,2.4,1.214l.08.08a8.873,8.873,0,0,0,6.308,2.619h0a2.637,2.637,0,0,0,2.645-2.612,8.939,8.939,0,0,0-1.1-4.326.056.056,0,0,1,.011-.056l.006-.007A26,26,0,0,0,140.3,71.14a26.994,26.994,0,0,0-13.875-17.121,2.528,2.528,0,0,0,1.538-2.129V49.648c0-.012,0-.024,0-.037s0-.034,0-.052c0-.939-.737-1.874-5.527-2.463a10.1,10.1,0,0,0,2.053-2.747l2.961-5.792a.976.976,0,0,0-1.336-1.3c-1.554.848-3.543-.05-4.937-.953a9.77,9.77,0,0,0-9.016-.9,8.245,8.245,0,0,0-3.919,3.178c-4.394,1.971-6.874-.947-6.988-1.085a.976.976,0,0,0-1.661.987l2.127,5.135a10.066,10.066,0,0,0,2.459,3.536c-4.386.6-5.066,1.5-5.066,2.4,0,.017,0,.034,0,.052s0,.024,0,.037v2.243a2.582,2.582,0,0,0,1.548,2.124A27.03,27.03,0,0,0,86.787,71.033,25.943,25.943,0,0,0,91.406,94,8.916,8.916,0,0,0,90.112,98.649Zm14.541-45.273c-2.656-.6-3.493-1.294-3.591-1.508v-.539a18.866,18.866,0,0,0,2.821.587,70.275,70.275,0,0,0,9.651.586,70.372,70.372,0,0,0,9.65-.586,18.867,18.867,0,0,0,2.822-.587v.537c-.042.075-.4.6-2.339,1.184l-.029.008a37.944,37.944,0,0,1-10.1,1.166A42.126,42.126,0,0,1,104.654,53.376Zm15.459-15.433a8.645,8.645,0,0,0,4.635,1.607l-2,3.912a8.087,8.087,0,0,1-3.365,3.449.959.959,0,0,0-.172.09,8.075,8.075,0,0,1-2.486.791l1.6-8.426a.976.976,0,0,0-.35-.945,7.452,7.452,0,0,0-5.018-1.231A7.82,7.82,0,0,1,120.112,37.943ZM103.52,42.875l-.886-2.141a8.2,8.2,0,0,0,6.627-.47.982.982,0,0,0,.164-.077c3.557-1.7,5.908-.988,6.86-.522l-1.564,8.215H111.01a8.109,8.109,0,0,1-3.638-.859.963.963,0,0,0-.142-.072,8.088,8.088,0,0,1-3.709-4.074Zm3.143,5.974a10.063,10.063,0,0,0,4.347.982h4.519a10.064,10.064,0,0,0,4.427-1.02,30.524,30.524,0,0,1,5.136.751,51.527,51.527,0,0,1-11.558.988,51.534,51.534,0,0,1-11.556-.987,29.013,29.013,0,0,1,4.686-.714Z" fill="#343a40"/>
    <g id="Group_2" data-name="Group 2" transform="translate(99.59 74.82)">
      <path id="Path_12" data-name="Path 12" d="M184.043,313.22a.982.982,0,0,0,.265-.037,24.98,24.98,0,0,0,6.89-3.4c4.583-3.24,7-7.546,7-12.454v-7.518a.976.976,0,0,0-.591-.9l-.084-.036a61.932,61.932,0,0,1-12.674-7.339.976.976,0,0,0-1.171,0,61.927,61.927,0,0,1-12.674,7.338l-.085.037a.976.976,0,0,0-.591.9v7.518c0,4.9,2.34,9.2,6.767,12.444a23.815,23.815,0,0,0,6.669,3.411.975.975,0,0,0,.274.039Zm-11.759-15.894v-6.878a63.9,63.9,0,0,0,11.983-6.916,63.913,63.913,0,0,0,11.983,6.916v6.878c0,4.291-2.064,7.934-6.135,10.828a23.794,23.794,0,0,1-6.068,3.066C182.269,310.615,172.284,306.8,172.284,297.326Z" transform="translate(-170.332 -281.341)" fill="#0089ce"/>
      <path id="Path_13" data-name="Path 13" d="M232.323,353.7a.976.976,0,0,0-1.38,0l-5.79,5.79L223,357.331a.976.976,0,1,0-1.38,1.38l2.848,2.848a.976.976,0,0,0,1.38,0l6.48-6.48a.976.976,0,0,0,0-1.381Z" transform="translate(-213.034 -341.689)" fill="#0089ce"/>
    </g>
  </g>
</svg>
