<svg xmlns="http://www.w3.org/2000/svg" width="71.214" height="60" viewBox="0 0 71.214 60">
  <g id="consultant" transform="translate(-10.008 -48.744)">
    <path id="Path_205" data-name="Path 205" d="M192.342,142.348l-.177-1.213a9.248,9.248,0,0,1,.619-3.981,11.447,11.447,0,0,1,1.673.708,13.623,13.623,0,0,0-1.359,5Z" transform="translate(-155.773 -75.613)" fill="rgba(0,137,206,0.45)"/>
    <path id="Path_206" data-name="Path 206" d="M201.557,309.549a5.992,5.992,0,0,0-1.83-3.808l1.03-.372-.308-.411-2.17.784a5.992,5.992,0,0,1,1.83,3.808c0,.024.011.048.011.072v7.212h1.447v-7.213C201.568,309.6,201.559,309.573,201.557,309.549Z" transform="translate(-161.019 -219.127)" fill="rgba(0,137,206,0.45)"/>
    <path id="Path_207" data-name="Path 207" d="M240.931,328.216c.014.019.03.036.046.054l.018-.106-.066.049Z" transform="translate(-197.497 -238.975)" fill="#d4e1f4"/>
    <path id="Path_208" data-name="Path 208" d="M241.447,279.165v-2.188A9.931,9.931,0,0,1,240,276.75v2.415l2.312,1.559.724-.488Z" transform="translate(-196.701 -195.002)" fill="rgba(0,137,206,0.45)"/>
    <path id="Path_209" data-name="Path 209" d="M261.543,276.939c.3,0,.6-.013.9-.039v-.236a9.635,9.635,0,0,1-1.618.248Q261.179,276.939,261.543,276.939Z" transform="translate(-214.509 -194.929)" fill="#d4e1f4"/>
    <path id="Path_210" data-name="Path 210" d="M193.184,102.494a14.269,14.269,0,0,0-4.12-1.709,3.469,3.469,0,0,1-1.118-.381c2.1-.791,4.526-1.9,5.449-2.342l.367-.177a10.563,10.563,0,0,1,1.853-.764,9.221,9.221,0,0,1,1.645-.284c-.24-.018-.48-.03-.724-.03a9.143,9.143,0,0,0-2.368.315,10.563,10.563,0,0,0-1.853.764l-.367.177c-.924.442-3.35,1.551-5.449,2.342a3.468,3.468,0,0,0,1.118.381,14.27,14.27,0,0,1,4.12,1.709c2.212,1.178,4.654,2.477,7.265,2.2A16.317,16.317,0,0,1,193.184,102.494Z" transform="translate(-150.945 -41.105)" fill="rgba(0,137,206,0.45)"/>
    <path id="Path_211" data-name="Path 211" d="M209.264,153.959l.271.185a.868.868,0,0,0,1.358-.729l-.006-.463a11.877,11.877,0,0,1,.921-4.74c-.4-.2-.792-.407-1.171-.609l0,.006a11.87,11.87,0,0,0-1.194,5.343l.006.463A.867.867,0,0,1,209.264,153.959Z" transform="translate(-170.414 -84.55)" fill="rgba(0,137,206,0.45)"/>
    <path id="Path_212" data-name="Path 212" d="M185.546,186.274a.868.868,0,0,0-.733-.858c-.143-.05-.454-.177-.567-.228a1.56,1.56,0,0,1-.662-1.678c.007-.029.017-.054.025-.08l-.868-.593a.933.933,0,0,0-.605.674,1.56,1.56,0,0,0,.662,1.678c.113.051.424.178.567.228a.869.869,0,0,1,.733.858,8.7,8.7,0,0,0,8.689,8.682c.244,0,.485-.013.724-.033A8.7,8.7,0,0,1,185.546,186.274Z" transform="translate(-147.175 -114.683)" fill="rgba(0,137,206,0.45)"/>
    <path id="Path_213" data-name="Path 213" d="M174.676,316.065a4.158,4.158,0,0,0-.722-.583A4.254,4.254,0,0,0,172,318.659v7.175h1.447v-7.175A4.232,4.232,0,0,1,174.676,316.065Z" transform="translate(-138.544 -228.128)" fill="rgba(0,137,206,0.45)"/>
    <path id="Path_214" data-name="Path 214" d="M150.678,195.254a.869.869,0,0,0-1.453,0l-7.783,11.867a.888.888,0,0,0-.038.9.879.879,0,0,0,.764.467h6.639a27.23,27.23,0,0,1-9.309,17.017,26.03,26.03,0,0,1-16.554,6.475,24.609,24.609,0,0,1-11.274-2.909,28.024,28.024,0,0,1-9.6-8.239.868.868,0,1,0-1.4,1.025,29.763,29.763,0,0,0,10.2,8.751,26.346,26.346,0,0,0,12.078,3.1,27.781,27.781,0,0,0,17.685-6.888,29.167,29.167,0,0,0,9.931-18.336h7.175a.883.883,0,0,0,.726-1.362Zm-6.9,11.5,6.175-9.415,6.175,9.415Z" transform="translate(-77.381 -124.968)" fill="#343a40"/>
    <path id="Path_215" data-name="Path 215" d="M18.658,87.594a.868.868,0,0,0,.726-.392l7.783-11.867a.888.888,0,0,0,.038-.9.879.879,0,0,0-.764-.467H19.8A27.23,27.23,0,0,1,29.111,56.95a26.03,26.03,0,0,1,16.554-6.475A24.609,24.609,0,0,1,56.94,53.385a28.023,28.023,0,0,1,9.6,8.239.868.868,0,1,0,1.4-1.025,29.763,29.763,0,0,0-10.2-8.751,26.346,26.346,0,0,0-12.078-3.1,27.785,27.785,0,0,0-17.685,6.888A29.167,29.167,0,0,0,18.05,73.967H10.875a.883.883,0,0,0-.726,1.362L17.932,87.2A.871.871,0,0,0,18.658,87.594ZM24.833,75.7l-6.175,9.415L12.483,75.7Z" fill="#343a40"/>
    <path id="Path_216" data-name="Path 216" d="M160.839,130.285H170.5l2.757,3.7a.843.843,0,0,0,1.39-.007l2.756-3.7h9.5a.821.821,0,0,0,.868-.811v-8.139c0-.024,0-.048,0-.072a5.989,5.989,0,0,0-3.271-4.831c-.03-.015-.028-.029-.06-.04l-3.759-1.368V113.7a.9.9,0,0,0-.492-.766c-.026-.014-.07-.025-.1-.036h-.023l-2.139-.871V112a10.51,10.51,0,0,0,6.292-8.921,3.316,3.316,0,0,0,1.937-3.826,2.667,2.667,0,0,0-1.507-1.819l.124-.859c0-.021.006-.042.007-.063A10.939,10.939,0,0,0,171.023,85.18a12.036,12.036,0,0,0-2.162.88c-.119.058-.237.116-.357.173A64.558,64.558,0,0,1,161.817,89a.868.868,0,0,0-.44,1.342,5.271,5.271,0,0,0,2.194,1.6,11,11,0,0,0-.657,4.571c0,.022,0,.043.007.066l.124.852a2.668,2.668,0,0,0-1.518,1.824,3.3,3.3,0,0,0,1.462,3.585,3.015,3.015,0,0,0,.467.214,10.423,10.423,0,0,0,6.313,8.961l-2.1.864,0,.01c-.028.011-.09.023-.117.037a.9.9,0,0,0-.492.766v1.328l-3.759,1.369a.585.585,0,0,0-.077.04,5.98,5.98,0,0,0-3.262,4.831c0,.024.005.048.005.072v8.139A.82.82,0,0,0,160.839,130.285Zm6.5-9.022a5.993,5.993,0,0,0-1.83-3.808l2.17-.784,2.557,3.411a.867.867,0,0,0,1.176.2l.336-.253-1.451,8.516h-2.947v-7.213C167.353,121.311,167.344,121.287,167.342,121.263Zm12.711-4.591,2.171.784a6,6,0,0,0-1.834,3.808c0,.024-.011.048-.011.072v7.212H177.6l-1.427-8.392.149.114a.874.874,0,0,0,.481.153.863.863,0,0,0,.695-.344Zm-1.12-1.31-2.3,3.023-1.149-.777,3.45-2.289Zm-2.75-.362-2.32,1.563L171.55,115v-2.415a10.124,10.124,0,0,0,4.632-.012Zm-7.382.318,3.467,2.288-1.183.777-2.284-3.022Zm5.147,16.732-2.015-2.686,1.8-10.627.129-.087.317.211,1.779,10.5Zm12.078-10.677v7.175h-3.908v-7.175a4.328,4.328,0,0,1,1.954-3.177A4.254,4.254,0,0,1,186.025,121.373ZM169.255,87.8l.367-.177a10.562,10.562,0,0,1,1.853-.764,9.213,9.213,0,0,1,11.568,9.507l-.167,1.163-.238.184,0-.057a4.334,4.334,0,0,0-3.481-3.963.869.869,0,0,0-.55.072c-3.482,1.7-6.711-.017-9.559-1.534a14.269,14.269,0,0,0-4.12-1.709,3.469,3.469,0,0,1-1.118-.381C165.905,89.35,168.331,88.241,169.255,87.8Zm-4.435,9.778-.177-1.213a9.248,9.248,0,0,1,.619-3.981,11.446,11.446,0,0,1,1.673.708,13.623,13.623,0,0,0-1.359,5Zm.355,4.856a.869.869,0,0,0-.733-.858c-.143-.05-.454-.177-.567-.228a1.56,1.56,0,0,1-.662-1.678.933.933,0,0,1,.605-.674l2.106,1.441a.868.868,0,0,0,1.358-.729l-.006-.463a11.869,11.869,0,0,1,1.194-5.343l0-.006c2.069,1.1,4.467,2.322,7.115,2.322a8.413,8.413,0,0,0,3.483-.756,2.6,2.6,0,0,1,1.826,2.308l.111,1.685a.868.868,0,0,0,1.4.63l1.422-1.1a.936.936,0,0,1,.635.684,1.571,1.571,0,0,1,.045.373,1.536,1.536,0,0,1-1.262,1.534.85.85,0,0,0-.7.856v.015a8.688,8.688,0,1,1-17.376-.014Zm-3.468,18.94a4.254,4.254,0,0,1,1.954-3.177,4.328,4.328,0,0,1,1.954,3.177v7.175h-3.908Z" transform="translate(-128.252 -30.842)" fill="#0089ce"/>
  </g>
</svg>
