<?xml version="1.0" encoding="utf-8"?>
<!-- Generator: Adobe Illustrator 17.1.0, SVG Export Plug-In . SVG Version: 6.00 Build 0)  -->
<!DOCTYPE svg PUBLIC "-//W3C//DTD SVG 1.1//EN" "http://www.w3.org/Graphics/SVG/1.1/DTD/svg11.dtd">
<svg version="1.1" id="Layer_1" xmlns="http://www.w3.org/2000/svg" xmlns:xlink="http://www.w3.org/1999/xlink" x="0px" y="0px"
	 viewBox="0 0 71.2 60" enable-background="new 0 0 71.2 60" xml:space="preserve">
<path id="Path_207" fill="#D4E1F4" d="M33.4,40.5C33.4,40.5,33.5,40.5,33.4,40.5L33.4,40.5L33.4,40.5L33.4,40.5z"/>
<path id="Path_209" fill="#D4E1F4" d="M37,33.3c0.3,0,0.6,0,0.9,0V33c-0.5,0.1-1.1,0.2-1.6,0.2C36.5,33.3,36.8,33.3,37,33.3z"/>
<path id="Path_214" fill="#343A40" d="M63.3,21.5c-0.3-0.4-0.8-0.5-1.2-0.2c-0.1,0.1-0.2,0.2-0.2,0.2l-7.8,11.9
	c-0.2,0.3-0.2,0.6,0,0.9c0.2,0.3,0.4,0.5,0.8,0.5h6.6c-0.9,6.6-4.2,12.7-9.3,17c-4.6,4-10.4,6.3-16.6,6.5c-3.9-0.1-7.8-1.1-11.3-2.9
	c-3.8-2-7.1-4.8-9.6-8.2c-0.3-0.4-0.8-0.5-1.2-0.2c-0.4,0.3-0.5,0.8-0.2,1.2c0,0,0,0,0,0c2.7,3.7,6.2,6.6,10.2,8.8
	c3.7,2,7.9,3,12.1,3.1c6.5-0.1,12.8-2.6,17.7-6.9c5.5-4.7,9-11.2,9.9-18.3h7.2c0.5,0,0.9-0.4,0.9-0.9c0-0.2-0.1-0.3-0.1-0.5
	L63.3,21.5z M56.4,33l6.2-9.4l6.2,9.4H56.4z"/>
<path id="Path_215" fill="#343A40" d="M8.7,38.9c0.3,0,0.6-0.1,0.7-0.4l7.8-11.9c0.2-0.3,0.2-0.6,0-0.9c-0.2-0.3-0.4-0.5-0.8-0.5
	H9.8c0.9-6.6,4.2-12.7,9.3-17c4.6-4,10.4-6.3,16.6-6.5c3.9,0.1,7.8,1.1,11.3,2.9c3.8,2,7.1,4.8,9.6,8.2c0.3,0.4,0.8,0.5,1.2,0.2
	s0.5-0.8,0.2-1.2c0,0,0,0,0,0c-2.7-3.7-6.2-6.6-10.2-8.8c-3.7-2-7.9-3-12.1-3.1C29.1,0.2,22.9,2.6,18,6.9C12.5,11.6,9,18.1,8,25.2
	H0.9c-0.5,0-0.9,0.4-0.9,0.9c0,0.2,0.1,0.3,0.1,0.5l7.8,11.9C8.1,38.7,8.4,38.8,8.7,38.9z M14.8,27l-6.2,9.4L2.5,27H14.8z"/>
<path id="Path_216" fill="#0089CE" d="M22.6,50.7h9.7l2.8,3.7c0.3,0.4,0.8,0.5,1.2,0.2c0.1-0.1,0.2-0.1,0.2-0.2l2.8-3.7h9.5
	c0.5,0,0.8-0.3,0.9-0.8c0,0,0,0,0,0v-8.1c0,0,0,0,0-0.1c-0.2-2.1-1.4-3.9-3.3-4.8c0,0,0,0-0.1,0l-3.8-1.4v-1.3
	c0-0.3-0.2-0.6-0.5-0.8c0,0-0.1,0-0.1,0h0l-2.1-0.9v0c3.6-1.6,6-5,6.3-8.9c1.5-0.6,2.3-2.2,1.9-3.8c-0.2-0.8-0.7-1.5-1.5-1.8
	l0.1-0.9c0,0,0,0,0-0.1c0.4-6-4.1-11.3-10.1-11.7c-1.2-0.1-2.4,0-3.6,0.3c-0.7,0.2-1.5,0.5-2.2,0.9c-0.1,0.1-0.2,0.1-0.4,0.2
	c-2.2,1-4.4,2-6.7,2.8c-0.5,0.1-0.7,0.6-0.6,1.1c0,0.1,0.1,0.2,0.1,0.3c0.6,0.7,1.3,1.3,2.2,1.6c-0.5,1.5-0.8,3-0.7,4.6
	c0,0,0,0,0,0.1l0.1,0.9c-0.8,0.3-1.3,1-1.5,1.8c-0.3,1.4,0.3,2.8,1.5,3.6c0.1,0.1,0.3,0.2,0.5,0.2c0.2,3.9,2.7,7.4,6.3,9l-2.1,0.9v0
	c0,0-0.1,0-0.1,0c-0.3,0.1-0.5,0.4-0.5,0.8v1.3L25,36.8c0,0-0.1,0-0.1,0c-1.9,0.9-3.1,2.8-3.3,4.8c0,0,0,0,0,0.1v8.1
	C21.7,50.3,22.1,50.7,22.6,50.7C22.5,50.7,22.6,50.7,22.6,50.7z M29.1,41.7c-0.1-1.4-0.8-2.8-1.8-3.8l2.2-0.8l2.6,3.4
	c0.3,0.4,0.8,0.5,1.2,0.2l0.3-0.3L32,49h-2.9L29.1,41.7C29.1,41.7,29.1,41.7,29.1,41.7L29.1,41.7z M41.8,37.1l2.2,0.8
	c-1.1,1-1.7,2.4-1.8,3.8c0,0,0,0,0,0.1V49h-2.8l-1.4-8.4l0.1,0.1c0.1,0.1,0.3,0.2,0.5,0.2c0.3,0,0.5-0.1,0.7-0.3L41.8,37.1z
	 M37.9,35.4L35.6,37l-2.3-1.6V33c1.5,0.4,3.1,0.3,4.6,0L37.9,35.4z M35.7,52.5l-2-2.7l1.8-10.6l0.1-0.1l0.3,0.2l1.8,10.5L35.7,52.5z
	 M47.8,41.8V49h-3.9v-7.2c0.1-1.3,0.9-2.5,2-3.2C46.9,39.3,47.6,40.5,47.8,41.8L47.8,41.8z M31,8.2L31.4,8c0.6-0.3,1.2-0.6,1.9-0.8
	c4.9-1.3,10,1.6,11.3,6.5c0.3,1,0.4,2,0.3,3l-0.2,1.2l-0.2,0.2v-0.1c-0.1-2-1.6-3.6-3.5-4c-0.2,0-0.4,0-0.6,0.1
	c-3.5,1.7-6.7,0-9.6-1.5c-1.3-0.8-2.7-1.4-4.1-1.7c-0.4-0.1-0.8-0.2-1.1-0.4C27.6,9.8,30.1,8.7,31,8.2z M26.6,18l-0.2-1.2
	c-0.1-1.4,0.1-2.7,0.6-4c0.6,0.2,1.1,0.4,1.7,0.7c-0.8,1.6-1.2,3.3-1.4,5L26.6,18z M26.9,22.8c0-0.4-0.3-0.8-0.7-0.9
	c-0.1-0.1-0.5-0.2-0.6-0.2c-0.6-0.4-0.8-1-0.7-1.7c0.1-0.3,0.3-0.6,0.6-0.7l2.1,1.4c0.4,0.3,0.9,0.2,1.2-0.2
	c0.1-0.1,0.2-0.3,0.2-0.5l0-0.5c0-1.8,0.4-3.7,1.2-5.3v0c2.1,1.1,4.5,2.3,7.1,2.3c1.2,0,2.4-0.3,3.5-0.8c1,0.3,1.8,1.2,1.8,2.3
	l0.1,1.7c0,0.5,0.4,0.8,0.9,0.8c0.2,0,0.3-0.1,0.5-0.2l1.4-1.1c0.3,0.1,0.6,0.4,0.6,0.7c0,0.1,0,0.2,0,0.4c0,0.8-0.5,1.4-1.3,1.5
	c-0.4,0.1-0.7,0.4-0.7,0.9v0c0,4.8-3.9,8.7-8.7,8.7S26.9,27.7,26.9,22.8C26.9,22.9,26.9,22.8,26.9,22.8L26.9,22.8z M23.4,41.8
	c0.1-1.3,0.8-2.5,2-3.2c1.1,0.7,1.8,1.9,2,3.2V49h-3.9L23.4,41.8z"/>
</svg>
