<svg xmlns="http://www.w3.org/2000/svg" width="61.412" height="60" viewBox="0 0 61.412 60">
  <g id="folder_1_" data-name="folder (1)" transform="translate(0.001 -0.055)">
    <path id="Path_243" data-name="Path 243" d="M14.816,52.344V15.754A4.747,4.747,0,0,1,19.548,11H16.783a4.747,4.747,0,0,0-4.732,4.75v36.59a4.746,4.746,0,0,0,4.732,4.75h.585a4.7,4.7,0,0,0,1.091-.129,4.755,4.755,0,0,1-3.642-4.622Zm0,0" transform="translate(-10.385 -9.435)" fill="rgba(0,137,206,0.45)"/>
    <path id="Path_244" data-name="Path 244" d="M102.75,323.008H83.358a7.29,7.29,0,0,1-1.811,3.1h21.2Zm0,0" transform="translate(-70.533 -278.295)" fill="rgba(0,137,206,0.45)"/>
    <path id="Path_245" data-name="Path 245" d="M6.391,49.284H33.6V47.625H11.268a6.376,6.376,0,0,0,2.1-4.732V19.547A4.738,4.738,0,0,1,18.1,14.815H45.047a4.738,4.738,0,0,1,4.733,4.732v10.24H51.44V19.547a6.4,6.4,0,0,0-6.393-6.391h-.428v-.3A6.4,6.4,0,0,0,38.227,6.46H27.789a.561.561,0,0,1-.414-.183L23.587,2.135A6.4,6.4,0,0,0,18.869.055H6.391A6.4,6.4,0,0,0,0,6.446V42.893a6.4,6.4,0,0,0,6.391,6.391ZM1.659,6.446A4.737,4.737,0,0,1,6.391,1.714H18.87a4.742,4.742,0,0,1,3.493,1.54L26.149,7.4a2.22,2.22,0,0,0,1.64.724H38.227a4.738,4.738,0,0,1,4.732,4.733v.3H18.1a6.4,6.4,0,0,0-6.391,6.391V42.893a4.738,4.738,0,0,1-4.733,4.732H6.391a4.737,4.737,0,0,1-4.732-4.732Zm0,0" transform="translate(0)" fill="#0089ce"/>
    <g id="Group_41" data-name="Group 41" transform="translate(31.514 25.792)">
      <path id="Path_246" data-name="Path 246" d="M235.179,216.723a25.673,25.673,0,0,0,7.195,3.68.827.827,0,0,0,.459,0,26.948,26.948,0,0,0,7.435-3.674c4.927-3.484,7.532-8.109,7.532-13.377v-7.326a2.209,2.209,0,0,0-1.308-2.019,67.911,67.911,0,0,1-13.143-7.67.831.831,0,0,0-1,0,67.887,67.887,0,0,1-13.143,7.67,2.21,2.21,0,0,0-1.308,2.019v7.326c0,5.262,2.516,9.884,7.276,13.369Zm-5.617-20.7a.549.549,0,0,1,.322-.5,69.743,69.743,0,0,0,12.967-7.489,69.744,69.744,0,0,0,12.967,7.489.549.549,0,0,1,.322.5v7.326a13.456,13.456,0,0,1-4.041,9.659,19.044,19.044,0,0,1-2.752,2.337,26.145,26.145,0,0,1-6.737,3.388,24.738,24.738,0,0,1-6.451-3.353,15.672,15.672,0,0,1-2.556-2.216,13.739,13.739,0,0,1-4.042-9.814Zm0,0" transform="translate(-227.903 -186.173)" fill="#343a40"/>
      <path id="Path_252" data-name="Path 252" d="M301.589,290.778a.829.829,0,0,0,1.173,0l5.62-5.62a.83.83,0,0,0-1.173-1.173l-5.034,5.034-2.61-2.61a.83.83,0,0,0-1.173,1.173Zm0,0" transform="translate(-288.439 -270.25)" fill="#343a40"/>
    </g>
  </g>
</svg>
