<?xml version="1.0" encoding="utf-8"?>
<!-- Generator: Adobe Illustrator 17.1.0, SVG Export Plug-In . SVG Version: 6.00 Build 0)  -->
<!DOCTYPE svg PUBLIC "-//W3C//DTD SVG 1.1//EN" "http://www.w3.org/Graphics/SVG/1.1/DTD/svg11.dtd">
<svg version="1.1" id="Layer_1" xmlns="http://www.w3.org/2000/svg" xmlns:xlink="http://www.w3.org/1999/xlink" x="0px" y="0px"
	 viewBox="0 0 61.4 60" enable-background="new 0 0 61.4 60" xml:space="preserve">
<g id="folder_1_" transform="translate(0.001 -0.055)">
	<path id="Path_245" fill="#0089CE" d="M6.4,49.3h27.2v-1.7H11.3c1.3-1.2,2.1-2.9,2.1-4.7V19.5c0-2.6,2.1-4.7,4.7-4.7H45
		c2.6,0,4.7,2.1,4.7,4.7v10.2h1.7V19.5c0-3.5-2.9-6.4-6.4-6.4h-0.4v-0.3c0-3.5-2.9-6.4-6.4-6.4H27.8c-0.2,0-0.3-0.1-0.4-0.2
		l-3.8-4.1c-1.2-1.3-2.9-2.1-4.7-2.1H6.4C2.9,0.1,0,2.9,0,6.4v36.4C0,46.4,2.9,49.3,6.4,49.3z M1.7,6.4c0-2.6,2.1-4.7,4.7-4.7h12.5
		c1.3,0,2.6,0.6,3.5,1.5l3.8,4.1c0.4,0.5,1,0.7,1.6,0.7h10.4c2.6,0,4.7,2.1,4.7,4.7v0.3H18.1c-3.5,0-6.4,2.9-6.4,6.4v23.3
		c0,2.6-2.1,4.7-4.7,4.7H6.4c-2.6,0-4.7-2.1-4.7-4.7L1.7,6.4z"/>
	<g id="Group_41" transform="translate(31.514 25.792)">
		<path id="Path_246" fill="#343A40" d="M7.3,30.6c2.2,1.6,4.6,2.8,7.2,3.7c0.1,0,0.3,0,0.5,0c2.7-0.8,5.2-2.1,7.4-3.7
			c4.9-3.5,7.5-8.1,7.5-13.4V9.9c0-0.9-0.5-1.7-1.3-2c-4.7-2.1-9.1-4.6-13.1-7.7c-0.3-0.2-0.7-0.2-1,0C10.4,3.2,6,5.8,1.3,7.8
			C0.5,8.2,0,9,0,9.9v7.3C0,22.4,2.5,27.1,7.3,30.6L7.3,30.6z M1.7,9.9c0-0.2,0.1-0.4,0.3-0.5c4.6-2,8.9-4.5,13-7.5
			c4,3,8.4,5.5,13,7.5c0.2,0.1,0.3,0.3,0.3,0.5v7.3c0,3.6-1.4,7.1-4,9.7c-0.8,0.9-1.8,1.6-2.8,2.3c-2.1,1.4-4.3,2.6-6.7,3.4
			c-2.3-0.8-4.5-1.9-6.5-3.4c-0.9-0.6-1.8-1.4-2.6-2.2c-2.6-2.6-4.1-6.1-4-9.8L1.7,9.9z"/>
		<path id="Path_252" fill="#343A40" d="M13.1,20.5c0.3,0.3,0.8,0.3,1.2,0c0,0,0,0,0,0l5.6-5.6c0.3-0.3,0.3-0.9,0-1.2
			c-0.3-0.3-0.8-0.3-1.1,0l-5,5l-2.6-2.6c-0.3-0.3-0.9-0.3-1.2,0c-0.3,0.3-0.3,0.8,0,1.1L13.1,20.5z"/>
	</g>
</g>
</svg>
