<svg xmlns="http://www.w3.org/2000/svg" width="54.828" height="60" viewBox="0 0 54.828 60">
  <g id="human-resources" transform="translate(-25 -10)">
    <path id="Path_217" data-name="Path 217" d="M63.325,25.57A3.58,3.58,0,0,1,65.754,22.2a3.639,3.639,0,0,0-1.187-.2,3.571,3.571,0,1,0,0,7.141,3.639,3.639,0,0,0,1.187-.2A3.58,3.58,0,0,1,63.325,25.57Z" transform="translate(-31.684 -10.537)" fill="rgba(0,137,206,0.45)"/>
    <path id="Path_218" data-name="Path 218" d="M44.534,114.838H42.161a5.24,5.24,0,0,0-5.161,5.3v2.875h2.374v-2.875A5.239,5.239,0,0,1,44.534,114.838Z" transform="translate(-10.576 -92.052)" fill="rgba(0,137,206,0.45)"/>
    <path id="Path_219" data-name="Path 219" d="M198.657,114.838h-2.374a5.239,5.239,0,0,0-5.161,5.3v2.875H193.5v-2.875A5.239,5.239,0,0,1,198.657,114.838Z" transform="translate(-146.408 -92.052)" fill="rgba(0,137,206,0.45)"/>
    <path id="Path_220" data-name="Path 220" d="M217.447,25.57a3.58,3.58,0,0,1,2.429-3.372,3.639,3.639,0,0,0-1.187-.2,3.571,3.571,0,1,0,0,7.141,3.639,3.639,0,0,0,1.187-.2A3.58,3.58,0,0,1,217.447,25.57Z" transform="translate(-167.516 -10.537)" fill="rgba(0,137,206,0.45)"/>
    <path id="Path_221" data-name="Path 221" d="M371.574,25.57A3.58,3.58,0,0,1,374,22.2a3.64,3.64,0,0,0-1.187-.2,3.571,3.571,0,1,0,0,7.141,3.64,3.64,0,0,0,1.187-.2A3.579,3.579,0,0,1,371.574,25.57Z" transform="translate(-303.352 -10.537)" fill="rgba(0,137,206,0.45)"/>
    <path id="Path_222" data-name="Path 222" d="M352.779,114.838h-2.373a5.239,5.239,0,0,0-5.161,5.3v2.875h2.374v-2.875A5.239,5.239,0,0,1,352.779,114.838Z" transform="translate(-282.24 -92.052)" fill="rgba(0,137,206,0.45)"/>
    <g id="Group_38" data-name="Group 38" transform="translate(25 10)">
      <path id="Path_223" data-name="Path 223" d="M53.991,20.068a5.034,5.034,0,1,0-5.04-5.034A5.043,5.043,0,0,0,53.991,20.068Zm0-8.6a3.571,3.571,0,1,1-3.616,3.57A3.6,3.6,0,0,1,53.991,11.463Z" transform="translate(-46.109 -10)" fill="#0089ce"/>
      <path id="Path_224" data-name="Path 224" d="M25.712,113.943H40.053a.722.722,0,0,0,.712-.732V109.6a6.685,6.685,0,0,0-6.585-6.767h-2.6A6.685,6.685,0,0,0,25,109.6v3.607a.722.722,0,0,0,.712.732Zm.712-4.338a5.24,5.24,0,0,1,5.161-5.3h2.6a5.239,5.239,0,0,1,5.161,5.3v2.875H26.424Z" transform="translate(-25 -91.516)" fill="#0089ce"/>
      <path id="Path_225" data-name="Path 225" d="M362.24,20.068a5.034,5.034,0,1,0-5.04-5.034A5.043,5.043,0,0,0,362.24,20.068Zm0-8.6a3.571,3.571,0,1,1-3.615,3.57A3.6,3.6,0,0,1,362.24,11.463Z" transform="translate(-317.776 -10)" fill="#0089ce"/>
      <path id="Path_226" data-name="Path 226" d="M333.957,113.943H348.3a.722.722,0,0,0,.712-.732V109.6a6.685,6.685,0,0,0-6.585-6.767h-2.6a6.685,6.685,0,0,0-6.585,6.767v3.607A.722.722,0,0,0,333.957,113.943Zm.712-4.338a5.239,5.239,0,0,1,5.161-5.3h2.6a5.239,5.239,0,0,1,5.161,5.3v2.875H334.669Z" transform="translate(-296.664 -91.516)" fill="#0089ce"/>
      <path id="Path_227" data-name="Path 227" d="M208.113,20.068a5.034,5.034,0,1,0-5.04-5.034A5.043,5.043,0,0,0,208.113,20.068Zm0-8.6a3.571,3.571,0,1,1-3.616,3.57,3.6,3.6,0,0,1,3.616-3.57Z" transform="translate(-181.94 -10)" fill="#0089ce"/>
      <path id="Path_228" data-name="Path 228" d="M179.835,113.943h14.341a.722.722,0,0,0,.712-.732V109.6a6.685,6.685,0,0,0-6.585-6.767h-2.6a6.685,6.685,0,0,0-6.585,6.767v3.607A.722.722,0,0,0,179.835,113.943Zm.712-4.338a5.239,5.239,0,0,1,5.161-5.3h2.6a5.239,5.239,0,0,1,5.161,5.3v2.875H180.547Z" transform="translate(-160.832 -91.516)" fill="#0089ce"/>
      <path id="Path_229" data-name="Path 229" d="M129.316,223.63a14.164,14.164,0,0,0,14,11.986,14.324,14.324,0,0,0,11-5.155l3.225,2.4a2.26,2.26,0,0,0,.691,2.784l9.551,7.109a2.2,2.2,0,0,0,3.086-.485l.323-.443a2.271,2.271,0,0,0,.406-1.676,2.233,2.233,0,0,0-.883-1.469l-9.551-7.108a2.2,2.2,0,0,0-2.757.126l-3.221-2.4a14.187,14.187,0,1,0-25.864-5.671Zm30.542,8.979a.787.787,0,0,1,.468.154l9.551,7.109a.774.774,0,0,1,.169,1.081l-.323.444a.794.794,0,0,1-1.112.174l-9.551-7.109a.774.774,0,0,1-.168-1.081l.323-.444A.8.8,0,0,1,159.858,232.61Zm-18.412-23.752a12.935,12.935,0,0,1,2-.156,12.914,12.914,0,1,1-2,.156Z" transform="translate(-116.791 -183.185)" fill="#0089ce"/>
    </g>
    <path id="Path_230" data-name="Path 230" d="M213.682,241.564a4.629,4.629,0,1,0-4.633-4.629A4.637,4.637,0,0,0,213.682,241.564Zm0-7.8a3.166,3.166,0,1,1-3.209,3.166A3.191,3.191,0,0,1,213.682,233.769Z" transform="translate(-162.207 -195.194)" fill="#343a40"/>
    <path id="Path_231" data-name="Path 231" d="M188.063,326.614h12.992a.722.722,0,0,0,.712-.732v-2.7a6.685,6.685,0,0,0-6.585-6.767h-1.247a6.685,6.685,0,0,0-6.585,6.767v2.7A.722.722,0,0,0,188.063,326.614Zm.712-3.432a5.239,5.239,0,0,1,5.161-5.3h1.247a5.239,5.239,0,0,1,5.161,5.3v1.968H188.775Z" transform="translate(-143.084 -269.046)" fill="#343a40"/>
  </g>
</svg>
