<?xml version="1.0" encoding="utf-8"?>
<!-- Generator: Adobe Illustrator 17.1.0, SVG Export Plug-In . SVG Version: 6.00 Build 0)  -->
<!DOCTYPE svg PUBLIC "-//W3C//DTD SVG 1.1//EN" "http://www.w3.org/Graphics/SVG/1.1/DTD/svg11.dtd">
<svg version="1.1" id="Layer_1" xmlns="http://www.w3.org/2000/svg" xmlns:xlink="http://www.w3.org/1999/xlink" x="0px" y="0px"
	 viewBox="0 0 54.8 60" enable-background="new 0 0 54.8 60" xml:space="preserve">
<g id="human-resources" transform="translate(-25 -10)">
	<g id="Group_38" transform="translate(25 10)">
		<path id="Path_223" fill="#0089CE" d="M7.9,10.1c2.8,0,5-2.3,5-5s-2.3-5-5-5c-2.8,0-5,2.3-5,5C2.8,7.8,5.1,10.1,7.9,10.1z
			 M7.9,1.5c2,0,3.6,1.6,3.5,3.6S9.8,8.6,7.8,8.6C5.8,8.6,4.3,7,4.3,5C4.3,3.1,5.9,1.5,7.9,1.5L7.9,1.5z"/>
		<path id="Path_224" fill="#0089CE" d="M0.7,22.4h14.3c0.4,0,0.7-0.3,0.7-0.7c0,0,0,0,0,0v-3.6c0-3.7-2.9-6.7-6.6-6.8H6.6
			C2.9,11.4,0,14.4,0,18.1v3.6C0,22.1,0.3,22.4,0.7,22.4C0.7,22.4,0.7,22.4,0.7,22.4L0.7,22.4z M1.4,18.1c0-2.9,2.3-5.3,5.2-5.3h2.6
			c2.9,0,5.2,2.4,5.2,5.3V21H1.4V18.1z"/>
		<path id="Path_225" fill="#0089CE" d="M44.5,10.1c2.8,0,5-2.3,5-5s-2.3-5-5-5c-2.8,0-5,2.3-5,5C39.4,7.8,41.7,10.1,44.5,10.1z
			 M44.5,1.5c2,0,3.6,1.6,3.5,3.6s-1.6,3.6-3.6,3.5c-2,0-3.5-1.6-3.5-3.6C40.9,3.1,42.5,1.5,44.5,1.5L44.5,1.5z"/>
		<path id="Path_226" fill="#0089CE" d="M37.3,22.4h14.3c0.4,0,0.7-0.3,0.7-0.7c0,0,0,0,0,0v-3.6c0-3.7-2.9-6.7-6.6-6.8h-2.6
			c-3.7,0.1-6.6,3.1-6.6,6.8v3.6C36.6,22.1,36.9,22.4,37.3,22.4C37.3,22.4,37.3,22.4,37.3,22.4z M38,18.1c0-2.9,2.3-5.3,5.2-5.3h2.6
			c2.9,0,5.2,2.4,5.2,5.3V21H38V18.1z"/>
		<path id="Path_227" fill="#0089CE" d="M26.2,10.1c2.8,0,5-2.3,5-5s-2.3-5-5-5c-2.8,0-5,2.3-5,5C21.1,7.8,23.4,10.1,26.2,10.1z
			 M26.2,1.5c2,0,3.6,1.6,3.5,3.6c0,2-1.6,3.6-3.6,3.5c-2,0-3.5-1.6-3.5-3.6C22.6,3.1,24.2,1.5,26.2,1.5z"/>
		<path id="Path_228" fill="#0089CE" d="M19,22.4h14.3c0.4,0,0.7-0.3,0.7-0.7c0,0,0,0,0,0v-3.6c0-3.7-2.9-6.7-6.6-6.8h-2.6
			c-3.7,0.1-6.6,3.1-6.6,6.8v3.6C18.3,22.1,18.6,22.4,19,22.4C19,22.4,19,22.4,19,22.4z M19.7,18.1c0-2.9,2.3-5.3,5.2-5.3h2.6
			c2.9,0,5.2,2.4,5.2,5.3V21H19.7L19.7,18.1z"/>
		<path id="Path_229" fill="#0089CE" d="M12.5,40.4c1.1,6.9,7,12,14,12c4.2,0,8.3-1.9,11-5.2l3.2,2.4c-0.5,1-0.2,2.1,0.7,2.8
			l9.6,7.1c1,0.7,2.4,0.5,3.1-0.5c0,0,0,0,0,0l0.3-0.4c0.4-0.5,0.5-1.1,0.4-1.7c-0.1-0.6-0.4-1.1-0.9-1.5l-9.6-7.1
			c-0.8-0.6-2-0.6-2.8,0.1l-3.2-2.4c4.3-6.5,2.5-15.3-4-19.7s-15.3-2.5-19.7,4C12.8,33.4,12,37,12.5,40.4L12.5,40.4z M43.1,49.4
			c0.2,0,0.3,0.1,0.5,0.2l9.6,7.1c0.3,0.3,0.4,0.7,0.2,1.1l-0.3,0.4c-0.3,0.4-0.8,0.4-1.1,0.2c0,0,0,0,0,0l-9.6-7.1
			c-0.3-0.3-0.4-0.7-0.2-1.1l0.3-0.4C42.6,49.5,42.8,49.4,43.1,49.4L43.1,49.4z M24.7,25.7c0.7-0.1,1.3-0.2,2-0.2
			c7.1,0,12.9,5.8,12.9,12.9c0,7.1-5.8,12.9-12.9,12.9s-12.9-5.8-12.9-12.9C13.7,32.1,18.4,26.7,24.7,25.7z"/>
	</g>
	<path id="Path_230" fill="#343A40" d="M51.5,46.4c2.6,0,4.6-2.1,4.6-4.6c0-2.6-2.1-4.6-4.6-4.6c-2.6,0-4.6,2.1-4.6,4.6
		C46.8,44.3,48.9,46.4,51.5,46.4z M51.5,38.6c1.7,0,3.1,1.5,3.1,3.2c0,1.7-1.5,3.1-3.2,3.1c-1.7,0-3.1-1.4-3.1-3.2
		C48.3,40,49.7,38.6,51.5,38.6L51.5,38.6z"/>
	<path id="Path_231" fill="#343A40" d="M45,57.6h13c0.4,0,0.7-0.3,0.7-0.7c0,0,0,0,0,0v-2.7c0-3.7-2.9-6.7-6.6-6.8h-1.2
		c-3.7,0.1-6.6,3.1-6.6,6.8v2.7C44.3,57.2,44.6,57.6,45,57.6C45,57.6,45,57.6,45,57.6z M45.7,54.1c0-2.9,2.3-5.3,5.2-5.3h1.2
		c2.9,0,5.2,2.4,5.2,5.3v2H45.7L45.7,54.1z"/>
</g>
</svg>
