<svg xmlns="http://www.w3.org/2000/svg" width="45.404" height="60" viewBox="0 0 45.404 60">
  <g id="badge_1_" data-name="badge (1)" transform="translate(-75.998 -19)">
    <path id="Path_186" data-name="Path 186" d="M179.508,101.351a10.171,10.171,0,0,1,8.234-9.986,10.167,10.167,0,1,0,0,19.972,10.17,10.17,0,0,1-8.233-9.986Z" transform="translate(-87.148 -63.081)" fill="rgba(0,137,206,0.45)"/>
    <path id="Path_187" data-name="Path 187" d="M77.162,278.878l9.05-3.038,4.9,8.514a.883.883,0,0,0,.765.442l.067,0a.883.883,0,0,0,.756-.561l6-15.432,6,15.432a.883.883,0,0,0,.756.561l.067,0a.883.883,0,0,0,.765-.442l4.9-8.514,9.05,3.038a.883.883,0,0,0,1.1-1.157l-8.806-22.66a.883.883,0,0,0-1.646.64l8.123,20.9-7.949-2.669a.883.883,0,0,0-1.046.4l-4.344,7.543-7.793-20.054a.883.883,0,0,0-1.646.64l1.517,3.9-6.027,15.511-4.344-7.543a.883.883,0,0,0-1.046-.4l-7.95,2.669,8.123-20.9a.883.883,0,0,0-1.646-.64l-8.806,22.66a.883.883,0,0,0,1.1,1.157Z" transform="translate(0 -205.797)" fill="#343a40"/>
    <path id="Path_188" data-name="Path 188" d="M173.614,101.049a11.932,11.932,0,1,0-11.89-11.932A11.924,11.924,0,0,0,173.614,101.049Zm0-22.1A10.166,10.166,0,1,1,163.49,89.118a10.157,10.157,0,0,1,10.125-10.167Z" transform="translate(-74.914 -50.847)" fill="#0089ce"/>
    <path id="Path_189" data-name="Path 189" d="M106.2,42.776a5.356,5.356,0,0,0,4.488,7.8,5.346,5.346,0,0,0,7.778,4.508,5.335,5.335,0,0,0,8.981,0,5.345,5.345,0,0,0,7.775-4.509,5.272,5.272,0,0,0,.947-.135,5.363,5.363,0,0,0,3.542-7.668,5.375,5.375,0,0,0,0-9.013,5.365,5.365,0,0,0-4.489-7.8,5.345,5.345,0,0,0-7.775-4.507,5.339,5.339,0,0,0-8.983,0,5.346,5.346,0,0,0-7.777,4.508,5.363,5.363,0,0,0-4.488,7.8,5.375,5.375,0,0,0,0,9.013Zm1.59-7.852a.883.883,0,0,0,.367-1.371,3.584,3.584,0,0,1-.3-4.037,3.544,3.544,0,0,1,3.627-1.753.883.883,0,0,0,1.006-1,3.577,3.577,0,0,1,5.764-3.346.883.883,0,0,0,1.374-.368,3.572,3.572,0,0,1,6.659,0,.883.883,0,0,0,1.375.367,3.576,3.576,0,0,1,5.76,3.344.883.883,0,0,0,1.005,1,3.547,3.547,0,0,1,3.628,1.755,3.584,3.584,0,0,1-.3,4.037.883.883,0,0,0,.367,1.371,3.6,3.6,0,0,1,0,6.692.883.883,0,0,0-.368,1.37,3.586,3.586,0,0,1,.3,4.037,3.541,3.541,0,0,1-2.288,1.7,3.5,3.5,0,0,1-1.34.054.883.883,0,0,0-1.006,1,3.576,3.576,0,0,1-5.76,3.345.883.883,0,0,0-1.375.367,3.571,3.571,0,0,1-6.658,0,.883.883,0,0,0-1.374-.368,3.577,3.577,0,0,1-5.764-3.345.883.883,0,0,0-1-1,3.591,3.591,0,0,1-3.328-5.792.883.883,0,0,0-.367-1.371,3.6,3.6,0,0,1,0-6.692Z" transform="translate(-24.257)" fill="#0089ce"/>
  </g>
</svg>
