<svg xmlns="http://www.w3.org/2000/svg" width="75.113" height="72" viewBox="0 0 75.113 72">
  <g id="monet" transform="translate(-13 -23.158)">
    <path id="Path_1" data-name="Path 1" d="M33.367,182.345a9.693,9.693,0,0,1-3.728-7.031V164.3l9.118-4.466L36.441,158.7,25,164.3v11.011a9.693,9.693,0,0,0,3.728,7.031l7.734,5.267,2.317-1.581Z" transform="translate(-10.145 -114.586)" fill="rgba(0,137,206,0.45)"/>
    <path id="Path_2" data-name="Path 2" d="M313.468,177.245a13.782,13.782,0,0,1,11.441-13.564,13.76,13.76,0,1,0,0,27.128,13.782,13.782,0,0,1-11.441-13.564Z" transform="translate(-250.093 -118.63)" fill="rgba(0,137,206,0.45)"/>
    <path id="Path_3" data-name="Path 3" d="M312.433,151.487A15.616,15.616,0,1,0,328.048,167.1,15.616,15.616,0,0,0,312.433,151.487Zm0,29.376a13.76,13.76,0,1,1,13.76-13.76A13.76,13.76,0,0,1,312.433,180.863Z" transform="translate(-239.936 -108.488)" fill="#0089ce"/>
    <path id="Path_4" data-name="Path 4" d="M372.41,187.924a2.831,2.831,0,0,1,2.828,2.828.926.926,0,1,0,1.853,0,4.669,4.669,0,0,0-3.759-4.591v-1.229a.928.928,0,0,0-1.855,0v1.229a4.684,4.684,0,0,0,.932,9.274,2.827,2.827,0,0,1,.028,5.655h-.053a2.83,2.83,0,0,1-2.8-2.827.929.929,0,1,0-1.858,0,4.664,4.664,0,0,0,3.753,4.591v1.4a.928.928,0,0,0,1.855,0v-1.4a4.683,4.683,0,0,0-.924-9.274,2.828,2.828,0,1,1,0-5.656Z" transform="translate(-299.879 -135.978)" fill="#0089ce"/>
    <path id="Path_5" data-name="Path 5" d="M17.542,173.154l8.253,5.624a.937.937,0,0,0,1.051,0l8.232-5.624a11.421,11.421,0,0,0,4.515-8.564V153.018a.915.915,0,0,0-.5-.833L26.727,146.11a.92.92,0,0,0-.813,0l-12.381,6.058A.939.939,0,0,0,13,153v11.59A11.45,11.45,0,0,0,17.542,173.154Zm-2.687-19.575,11.441-5.6,11.441,5.62v10.995a9.666,9.666,0,0,1-3.7,7.031l-7.716,5.267-7.734-5.267a9.693,9.693,0,0,1-3.728-7.031Z" transform="translate(0 -103.862)" fill="#0089ce"/>
    <path id="Path_6" data-name="Path 6" d="M63.35,233.4a.928.928,0,0,0,1.3,0l6.731-6.572a.928.928,0,1,0-1.3-1.328L64,231.438l-3.088-3.015a.928.928,0,1,0-1.3,1.328Z" transform="translate(-39.171 -170.834)" fill="#0089ce"/>
    <path id="Path_7" data-name="Path 7" d="M152.9,23.158a22.086,22.086,0,0,0-14,5l-3.306-3.306a.935.935,0,0,0-1.594.656v7.755a1,1,0,0,0,.938,1h7.755a.97.97,0,0,0,.656-1.64l-3.131-3.14a20.259,20.259,0,0,1,29.294,4.184.928.928,0,1,0,1.52-1.067A22.153,22.153,0,0,0,152.9,23.158ZM135.855,32.41V27.747l2.288,2.282.007.006c.025.028.053.092.081.117l2.221,2.259Z" transform="translate(-102.292)" fill="#343a40"/>
    <path id="Path_8" data-name="Path 8" d="M170.244,417h-7.755a.97.97,0,0,0-.656,1.64l3.131,3.14a20.259,20.259,0,0,1-29.294-4.184.928.928,0,0,0-1.52,1.066,22.118,22.118,0,0,0,32.133,4.446l3.306,3.306a.927.927,0,0,0,.656.272,1.117,1.117,0,0,0,.392-.071.963.963,0,0,0,.609-.857V418A1.06,1.06,0,0,0,170.244,417Zm-.854,6.519-2.32-2.283s-.021,0-.023-.005c-.025-.028-.062-.092-.089-.116l-2.23-2.258h4.662Z" transform="translate(-102.276 -332.949)" fill="#343a40"/>
  </g>
</svg>
