<?xml version="1.0" encoding="utf-8"?>
<!-- Generator: Adobe Illustrator 17.1.0, SVG Export Plug-In . SVG Version: 6.00 Build 0)  -->
<!DOCTYPE svg PUBLIC "-//W3C//DTD SVG 1.1//EN" "http://www.w3.org/Graphics/SVG/1.1/DTD/svg11.dtd">
<svg version="1.1" id="Layer_1" xmlns="http://www.w3.org/2000/svg" xmlns:xlink="http://www.w3.org/1999/xlink" x="0px" y="0px"
	 viewBox="0 0 75.1 72" enable-background="new 0 0 75.1 72" xml:space="preserve">
<g id="monet" transform="translate(-13 -23.158)">
	<path id="Path_3" fill="#0089CE" d="M72.5,43c-8.6,0-15.6,7-15.6,15.6s7,15.6,15.6,15.6c8.6,0,15.6-7,15.6-15.6c0,0,0,0,0,0
		C88.1,50,81.1,43,72.5,43z M72.5,72.4c-7.6,0-13.8-6.2-13.8-13.8c0-7.6,6.2-13.8,13.8-13.8c7.6,0,13.8,6.2,13.8,13.8
		S80.1,72.4,72.5,72.4L72.5,72.4z"/>
	<path id="Path_4" fill="#0089CE" d="M72.5,51.9c1.6,0,2.8,1.3,2.8,2.8c0,0.5,0.4,0.9,0.9,0.9c0.5,0,0.9-0.4,0.9-0.9
		c0-2.2-1.6-4.2-3.8-4.6V49c0-0.5-0.4-0.9-1-0.9c-0.5,0-0.9,0.4-0.9,0.9v1.2c-2.5,0.5-4.2,3-3.7,5.5c0.4,2.2,2.4,3.7,4.6,3.8
		c1.6,0,2.8,1.3,2.8,2.8c0,1.6-1.3,2.8-2.8,2.8h-0.1c-1.6,0-2.8-1.3-2.8-2.8c0-0.5-0.4-0.9-0.9-0.9c-0.5,0-0.9,0.4-0.9,0.9
		c0,2.2,1.6,4.2,3.8,4.6v1.4c0,0.5,0.4,0.9,1,0.9c0.5,0,0.9-0.4,0.9-0.9v-1.4c2.5-0.5,4.2-3,3.7-5.5c-0.4-2.2-2.4-3.8-4.6-3.8
		c-1.6,0-2.8-1.3-2.8-2.8S71,51.9,72.5,51.9z"/>
	<path id="Path_5" fill="#0089CE" d="M17.5,69.3l8.3,5.6c0.3,0.2,0.7,0.2,1.1,0l8.2-5.6c2.7-2,4.4-5.2,4.5-8.6V49.2
		c0-0.4-0.2-0.7-0.5-0.8l-12.4-6.1c-0.3-0.1-0.6-0.1-0.8,0l-12.4,6.1c-0.3,0.2-0.5,0.5-0.5,0.8v11.6C13.2,64.1,14.8,67.3,17.5,69.3z
		 M14.9,49.7l11.4-5.6l11.4,5.6v11c-0.2,2.8-1.5,5.3-3.7,7L26.3,73l-7.7-5.3c-2.2-1.7-3.5-4.3-3.7-7L14.9,49.7z"/>
	<path id="Path_6" fill="#0089CE" d="M24.2,62.6c0.4,0.4,0.9,0.4,1.3,0l6.7-6.6c0.4-0.4,0.4-0.9,0-1.3c-0.4-0.4-0.9-0.4-1.3,0
		l-6.1,5.9l-3.1-3c-0.4-0.4-1-0.4-1.3,0c-0.4,0.4-0.4,1,0,1.3L24.2,62.6z"/>
	<path id="Path_7" fill="#343A40" d="M50.6,23.2c-5.1,0-10.1,1.8-14,5l-3.3-3.3c-0.4-0.4-1-0.4-1.3,0c-0.2,0.2-0.3,0.4-0.3,0.7v7.8
		c0,0.5,0.4,1,0.9,1h7.8c0.5,0,0.9-0.5,0.9-1c0-0.2-0.1-0.5-0.3-0.6l-3.1-3.1c8.7-7,21.5-5.6,28.5,3.1c0.3,0.4,0.6,0.7,0.8,1.1
		c0.3,0.4,0.9,0.5,1.3,0.2s0.5-0.9,0.2-1.3C64.6,26.7,57.8,23.2,50.6,23.2z M33.6,32.4v-4.7l2.3,2.3l0,0c0,0,0.1,0.1,0.1,0.1
		l2.2,2.3L33.6,32.4z"/>
	<path id="Path_8" fill="#343A40" d="M68,84.1h-7.8c-0.5,0-0.9,0.5-0.9,1c0,0.2,0.1,0.5,0.3,0.6l3.1,3.1c-8.7,7-21.5,5.6-28.5-3.1
		c-0.3-0.4-0.6-0.7-0.8-1.1c-0.3-0.4-0.9-0.5-1.3-0.2c-0.4,0.3-0.5,0.9-0.2,1.3c7,10,20.8,12.5,30.8,5.5c0.5-0.3,0.9-0.7,1.3-1
		l3.3,3.3c0.2,0.2,0.4,0.3,0.7,0.3c0.1,0,0.3,0,0.4-0.1c0.4-0.1,0.6-0.5,0.6-0.9v-7.8C68.9,84.5,68.5,84.1,68,84.1z M67.1,90.6
		l-2.3-2.3c0,0,0,0,0,0c0,0-0.1-0.1-0.1-0.1l-2.2-2.3h4.7V90.6z"/>
</g>
</svg>
