<svg xmlns="http://www.w3.org/2000/svg" width="60" height="60" viewBox="0 0 60 60">
  <g id="money_1_" data-name="money (1)" transform="translate(-18.996 -18.996)">
    <path id="Path_199" data-name="Path 199" d="M117.712,255.683a11.368,11.368,0,0,1-8.067-19.383,11.372,11.372,0,1,0,12.337,18.551A11.313,11.313,0,0,1,117.712,255.683Z" transform="translate(-72.965 -189.798)" fill="rgba(0,137,206,0.4)"/>
    <path id="Path_200" data-name="Path 200" d="M28.637,185.748l3.139-2.6a17.9,17.9,0,0,0,4.91,2.073l.392,4.045a.733.733,0,0,0,.756.655h6.232a.733.733,0,0,0,.756-.655l.392-4.06a17.489,17.489,0,0,0,4.915-2.061l3.134,2.6a.759.759,0,0,0,1.021-.046l4.4-4.395a.759.759,0,0,0,.048-1.021l-2.6-3.139a17.907,17.907,0,0,0,2.073-4.91l4.027-.392a.764.764,0,0,0,.692-.755v-6.232a.764.764,0,0,0-.692-.756L58.15,163.7a17.511,17.511,0,0,0-2.071-4.915l2.595-3.134a.759.759,0,0,0-.045-1.018l-4.341-4.4a.759.759,0,0,0-1.025-.051l-3.139,2.6a17.9,17.9,0,0,0-4.91-2.073l-.392-4.054a.741.741,0,0,0-.756-.665H37.834a.741.741,0,0,0-.756.665l-.392,4.065a17.491,17.491,0,0,0-4.915,2.064l-3.134-2.6a.759.759,0,0,0-1.021.046l-4.4,4.395a.759.759,0,0,0-.048,1.021l2.6,3.139a17.9,17.9,0,0,0-2.073,4.91l-4.045.392a.733.733,0,0,0-.656.756v6.232a.734.734,0,0,0,.656.756l4.06.392a17.487,17.487,0,0,0,2.062,4.915l-2.6,3.134a.76.76,0,0,0,.046,1.021l4.4,4.4A.758.758,0,0,0,28.637,185.748Zm-1.346-8.057a.759.759,0,0,0,.047-.906,15.917,15.917,0,0,1-2.282-5.415.725.725,0,0,0-.639-.595l-3.9-.379v-4.852l3.9-.379a.742.742,0,0,0,.654-.595,16.378,16.378,0,0,1,2.281-5.424.759.759,0,0,0-.057-.9l-2.51-3.029L28.2,151.8l3.028,2.508a.759.759,0,0,0,.906.047,15.912,15.912,0,0,1,5.415-2.283.735.735,0,0,0,.595-.648l.379-3.909h4.852l.379,3.91a.747.747,0,0,0,.595.658,16.385,16.385,0,0,1,5.424,2.283.759.759,0,0,0,.9-.056l3.025-2.506,3.368,3.411-2.511,3.032a.759.759,0,0,0-.047.905,15.918,15.918,0,0,1,2.282,5.415.766.766,0,0,0,.675.595l3.937.379V170.4l-3.882.378a.763.763,0,0,0-.671.595,16.406,16.406,0,0,1-2.29,5.424.76.76,0,0,0,.053.9l2.509,3.03L53.7,184.137l-3.029-2.508a.759.759,0,0,0-.906-.047,15.916,15.916,0,0,1-5.415,2.282.725.725,0,0,0-.595.638l-.38,3.9H38.524l-.379-3.9a.742.742,0,0,0-.6-.654,16.379,16.379,0,0,1-5.424-2.281.759.759,0,0,0-.9.057l-3.029,2.51-3.418-3.417Z" transform="translate(0 -110.926)" fill="#0089ce"/>
    <path id="Path_201" data-name="Path 201" d="M103.474,243.505a12.893,12.893,0,1,0-12.893-12.893,12.893,12.893,0,0,0,12.893,12.893Zm0-24.266A11.374,11.374,0,1,1,92.1,230.613a11.374,11.374,0,0,1,11.374-11.374Z" transform="translate(-62.524 -173.569)" fill="#0089ce"/>
    <path id="Path_202" data-name="Path 202" d="M165.069,263.665h-.045a2.407,2.407,0,0,1-2.382-2.4.759.759,0,0,0-.759-.759.771.771,0,0,0-.773.759,3.947,3.947,0,0,0,3.15,3.849v1.2a.759.759,0,1,0,1.519,0v-1.2a3.971,3.971,0,0,0,3.178-3.85,3.923,3.923,0,0,0-3.917-3.924,2.405,2.405,0,1,1,2.411-2.405.759.759,0,0,0,.759.759.748.748,0,0,0,.746-.759,3.971,3.971,0,0,0-3.178-3.85v-1.054a.759.759,0,0,0-1.519,0v1.054a3.925,3.925,0,0,0,.78,7.774,2.4,2.4,0,1,1,.03,4.81Z" transform="translate(-124.123 -201.125)" fill="#0089ce"/>
    <path id="Path_203" data-name="Path 203" d="M305.661,33.3l1.889.183a9.589,9.589,0,0,0,.93,2.225l-1.209,1.457a.759.759,0,0,0,.046,1.022l2.317,2.318a.759.759,0,0,0,1.021.048l1.461-1.21a9.788,9.788,0,0,0,2.22.939l.183,1.927a.783.783,0,0,0,.756.713h3.286a.783.783,0,0,0,.756-.713l.183-1.913a9.633,9.633,0,0,0,2.225-.942l1.457,1.2a.759.759,0,0,0,1.022-.05l2.318-2.319a.759.759,0,0,0,.048-1.022l-1.21-1.461a9.787,9.787,0,0,0,.939-2.221l1.842-.183a.734.734,0,0,0,.655-.756V29.258a.733.733,0,0,0-.656-.756l-1.885-.183a9.6,9.6,0,0,0-.928-2.225l1.21-1.457a.759.759,0,0,0-.043-1.018L324.206,21.3a.759.759,0,0,0-1.024-.051l-1.461,1.21a9.786,9.786,0,0,0-2.22-.939l-.183-1.87a.733.733,0,0,0-.756-.655h-3.286a.733.733,0,0,0-.756.655l-.183,1.885a9.6,9.6,0,0,0-2.224.928l-1.457-1.21a.759.759,0,0,0-1.021.046l-2.318,2.316a.76.76,0,0,0-.048,1.021l1.21,1.461a9.792,9.792,0,0,0-.939,2.22l-1.878.184a.739.739,0,0,0-.663.756v3.286A.739.739,0,0,0,305.661,33.3Zm.856-3.352,1.725-.169a.747.747,0,0,0,.658-.595,8.273,8.273,0,0,1,1.152-2.741.759.759,0,0,0-.056-.9L308.881,24.2l1.339-1.34,1.345,1.114a.759.759,0,0,0,.906.047,8.03,8.03,0,0,1,2.732-1.151.725.725,0,0,0,.595-.638l.168-1.718h1.906l.168,1.717a.742.742,0,0,0,.595.654,8.267,8.267,0,0,1,2.743,1.15.76.76,0,0,0,.9-.057l1.342-1.113,1.316,1.333-1.117,1.348a.759.759,0,0,0-.047.906,8.028,8.028,0,0,1,1.151,2.732.725.725,0,0,0,.639.595l1.718.169v1.907l-1.689.168a.742.742,0,0,0-.653.595,8.271,8.271,0,0,1-1.15,2.741.76.76,0,0,0,.057.9l1.116,1.345-1.339,1.34-1.345-1.114a.759.759,0,0,0-.906-.047,8.029,8.029,0,0,1-2.732,1.151.79.79,0,0,0-.595.7l-.17,1.774h-1.906l-.168-1.774a.775.775,0,0,0-.595-.682,8.31,8.31,0,0,1-2.741-1.165.759.759,0,0,0-.9.051l-1.345,1.112-1.34-1.341,1.114-1.346a.759.759,0,0,0,.047-.906,8.033,8.033,0,0,1-1.151-2.732.733.733,0,0,0-.646-.595l-1.726-.169Z" transform="translate(-249.8 0)" fill="#343a40"/>
    <path id="Path_204" data-name="Path 204" d="M361.166,80.55a5.508,5.508,0,1,0-5.508-5.508A5.508,5.508,0,0,0,361.166,80.55Zm0-9.5a3.989,3.989,0,1,1-3.989,3.989A3.989,3.989,0,0,1,361.166,71.053Z" transform="translate(-294.047 -44.141)" fill="#343a40"/>
  </g>
</svg>
