<?xml version="1.0" encoding="utf-8"?>
<!-- Generator: Adobe Illustrator 17.1.0, SVG Export Plug-In . SVG Version: 6.00 Build 0)  -->
<!DOCTYPE svg PUBLIC "-//W3C//DTD SVG 1.1//EN" "http://www.w3.org/Graphics/SVG/1.1/DTD/svg11.dtd">
<svg version="1.1" id="Layer_1" xmlns="http://www.w3.org/2000/svg" xmlns:xlink="http://www.w3.org/1999/xlink" x="0px" y="0px"
	 viewBox="0 0 55 38.8" enable-background="new 0 0 55 38.8" xml:space="preserve">
<g id="Quotemarks-left" transform="translate(-0.001 -9.412)">
	<path id="Path_390" fill="#0089CE" d="M43.5,23.9c-0.1-1.2,0-4.5,3.1-9c0.2-0.3,0.2-0.8-0.1-1.1c-1.3-1.3-2.1-2.1-2.6-2.6
		c-0.7-0.7-1.1-1.1-1.5-1.5c-0.3-0.3-0.8-0.3-1.1,0c-7.4,6.8-11.3,16.5-10.6,26.5c0.5,7,5.6,12.1,12.2,12.1
		c6.7-0.1,12.2-5.6,12.1-12.3C54.8,29.5,49.9,24.3,43.5,23.9z M42.8,46.5c-5.6,0-10-4.4-10.5-10.5l0,0c-0.6-9.2,2.9-18.1,9.4-24.5
		c0.2,0.2,0.5,0.5,0.9,0.9c0.5,0.5,1.1,1.2,2.1,2.1c-3.8,5.8-3.1,10-2.8,10.6c0.2,0.3,0.4,0.5,0.8,0.5c5.8,0,10.5,4.7,10.5,10.5
		S48.6,46.5,42.8,46.5L42.8,46.5z"/>
	<path id="Path_391" fill="#0089CE" d="M13,23.9c-0.1-1.2,0-4.4,3.1-9c0.2-0.3,0.2-0.8-0.1-1.1c-1.3-1.3-2.1-2.1-2.6-2.6
		c-0.7-0.7-1.1-1.1-1.5-1.5c-0.3-0.3-0.8-0.3-1.1,0C3.3,16.4-0.6,26.1,0.1,36.1l0,0c0.5,7,5.6,12.1,12.2,12.1
		c6.7,0,12.2-5.5,12.1-12.3C24.4,29.6,19.4,24.3,13,23.9L13,23.9z M12.3,46.5c-5.6,0-10-4.4-10.5-10.5l0,0
		c-0.6-9.2,2.9-18.1,9.4-24.5c0.2,0.2,0.5,0.5,0.9,0.9c0.5,0.5,1.1,1.2,2.1,2.1c-3.8,5.8-3.1,10-2.8,10.6c0.2,0.3,0.4,0.5,0.8,0.5
		c5.8,0,10.5,4.7,10.5,10.5S18.1,46.5,12.3,46.5L12.3,46.5z"/>
</g>
</svg>
