<svg xmlns="http://www.w3.org/2000/svg" width="54.999" height="38.823" viewBox="0 0 54.999 38.823">
  <g id="Quotemarks-left" transform="translate(-0.001 -9.412)">
    <path id="Path_392" data-name="Path 392" d="M10.288,11.217S1.424,25.2,4.274,36.235s13.341,8.391,18.155,2.936-4.336,7.081-4.336,7.081l-7.8.982-6.492-3L1.283,39.171.655,31.946,2.016,24.2l2.513-6.282L7,13.831Z" fill="rgba(0,137,206,0.45)"/>
    <path id="Path_390" data-name="Path 390" d="M48.5,23.861c-.111-1.2-.026-4.453,3.093-8.98a.859.859,0,0,0-.1-1.1c-1.271-1.271-2.059-2.074-2.611-2.635-.726-.74-1.057-1.078-1.543-1.517A.861.861,0,0,0,46.2,9.623,32.937,32.937,0,0,0,35.6,36.1c.512,7.031,5.641,12.134,12.194,12.134A12.2,12.2,0,0,0,48.5,23.861ZM47.8,46.516c-5.628,0-10.035-4.433-10.48-10.54h0a31.408,31.408,0,0,1,9.441-24.531c.236.232.505.506.9.911.478.487,1.133,1.153,2.123,2.147C46,20.335,46.712,24.491,47.025,25.087a.89.89,0,0,0,.772.473,10.478,10.478,0,1,1,0,20.956Z" transform="translate(-4.995)" fill="#0089ce"/>
    <path id="Path_391" data-name="Path 391" d="M12.988,23.861c-.112-1.194-.029-4.447,3.093-8.98a.86.86,0,0,0-.1-1.1c-1.269-1.269-2.055-2.07-2.607-2.632-.728-.742-1.061-1.08-1.546-1.521a.863.863,0,0,0-1.141-.012A32.941,32.941,0,0,0,.085,36.1h0c.514,7.03,5.643,12.134,12.2,12.134a12.2,12.2,0,0,0,.707-24.374Zm-.707,22.655c-5.627,0-10.036-4.433-10.483-10.541h0a31.412,31.412,0,0,1,9.444-24.532c.237.232.507.508.9.913.477.487,1.131,1.152,2.12,2.144-3.786,5.834-3.072,9.989-2.759,10.584a.892.892,0,0,0,.773.474,10.478,10.478,0,1,1,0,20.956Z" transform="translate(0 0)" fill="#0089ce"/>
    <path id="Path_393" data-name="Path 393" d="M10.288,11.217S1.424,25.2,4.274,36.235s13.341,8.391,18.155,2.936-4.336,7.081-4.336,7.081l-7.8.982-6.492-3L1.283,39.171.655,31.946,2.016,24.2l2.513-6.282L7,13.831Z" transform="translate(30.344)" fill="rgba(0,137,206,0.45)"/>
  </g>
</svg>
