<svg xmlns="http://www.w3.org/2000/svg" width="52.434" height="60" viewBox="0 0 52.434 60">
  <g id="security" transform="translate(-0.441 0.002)">
    <path id="Path_236" data-name="Path 236" d="M36.983,59.12H20.589a4.307,4.307,0,0,1-4.377-4.233l-.186-37.97a4.165,4.165,0,0,1,.267-1.49,4.265,4.265,0,0,0-2.852,4.014l.186,37.97A4.307,4.307,0,0,0,18,61.644l19.612-.156Zm-.516,0" transform="translate(-12.564 -13.487)" fill="rgba(0,137,206,0.45)"/>
    <g id="Group_40" data-name="Group 40" transform="translate(0.441 -0.002)">
      <path id="Path_237" data-name="Path 237" d="M2.364,47.868a5.839,5.839,0,0,0,4.135,1.7h.029l19.061-.033L25.27,48,6.52,48.059H6.5a4.366,4.366,0,0,1-4.366-4.346L1.951,5.981A4.367,4.367,0,0,1,6.3,1.594L23.76,1.51l.034,7.09a5.883,5.883,0,0,0,5.876,5.848H29.7l7.09-.034.133,12.925,1.438-.439-.064-13.059v-.216a.756.756,0,0,0-.224-.534L25.069.242a.758.758,0,0,0-.46-.214L24.339,0a.55.55,0,0,0-.075,0L6.289.085a5.877,5.877,0,0,0-5.848,5.9L.623,43.721a5.84,5.84,0,0,0,1.741,4.147Zm27.327-34.93H29.67A4.372,4.372,0,0,1,25.3,8.592l-.029-6.025L35.738,12.909Zm0,0" transform="translate(-0.441 0.002)" fill="#0089ce"/>
      <path id="Path_238" data-name="Path 238" d="M140.169,221.516a.755.755,0,1,0,0,1.51h2.56a.755.755,0,1,0,0-1.51Zm0,0" transform="translate(-121.929 -193.645)" fill="#0089ce"/>
      <path id="Path_239" data-name="Path 239" d="M83.737,171.388a.755.755,0,0,0-.755-.755H61.727a.755.755,0,1,0,0,1.51H82.982A.755.755,0,0,0,83.737,171.388Zm0,0" transform="translate(-53.356 -149.164)" fill="#0089ce"/>
      <path id="Path_240" data-name="Path 240" d="M61.728,221.516a.755.755,0,1,0,0,1.51h6.626a.755.755,0,1,0,0-1.51Zm0,0" transform="translate(-53.357 -193.645)" fill="#0089ce"/>
    </g>
    <path id="Path_343" data-name="Path 343" d="M235.179,216.724a25.673,25.673,0,0,0,7.195,3.68.827.827,0,0,0,.459,0,26.947,26.947,0,0,0,7.435-3.674c4.927-3.484,7.532-8.109,7.532-13.377v-7.326a2.209,2.209,0,0,0-1.308-2.019,67.912,67.912,0,0,1-13.143-7.67.83.83,0,0,0-1,0,67.89,67.89,0,0,1-13.143,7.67,2.21,2.21,0,0,0-1.308,2.019v7.326c0,5.262,2.516,9.884,7.276,13.369Zm-5.617-20.7a.549.549,0,0,1,.322-.5,69.74,69.74,0,0,0,12.967-7.489,69.744,69.744,0,0,0,12.967,7.489.549.549,0,0,1,.322.5v7.326a13.456,13.456,0,0,1-4.041,9.659,19.043,19.043,0,0,1-2.752,2.337,26.145,26.145,0,0,1-6.737,3.388,24.738,24.738,0,0,1-6.451-3.353,15.67,15.67,0,0,1-2.556-2.216,13.739,13.739,0,0,1-4.042-9.814Zm0,0" transform="translate(-204.925 -160.439)" fill="#343a40"/>
    <path id="Path_344" data-name="Path 344" d="M301.589,290.778a.829.829,0,0,0,1.173,0l5.62-5.62a.83.83,0,1,0-1.173-1.173l-5.034,5.034-2.61-2.61a.83.83,0,0,0-1.173,1.173Zm0,0" transform="translate(-265.461 -244.516)" fill="#343a40"/>
  </g>
</svg>
