<?xml version="1.0" encoding="utf-8"?>
<!-- Generator: Adobe Illustrator 17.1.0, SVG Export Plug-In . SVG Version: 6.00 Build 0)  -->
<!DOCTYPE svg PUBLIC "-//W3C//DTD SVG 1.1//EN" "http://www.w3.org/Graphics/SVG/1.1/DTD/svg11.dtd">
<svg version="1.1" id="Layer_1" xmlns="http://www.w3.org/2000/svg" xmlns:xlink="http://www.w3.org/1999/xlink" x="0px" y="0px"
	 viewBox="0 0 52.4 60" enable-background="new 0 0 52.4 60" xml:space="preserve">
<g id="security" transform="translate(-0.441 0.002)">
	<g id="Group_40" transform="translate(0.441 -0.002)">
		<path id="Path_237" fill="#0089CE" d="M1.9,47.9C3,49,4.5,49.6,6.1,49.6h0l19.1,0L24.8,48L6.1,48.1h0c-2.4,0-4.4-1.9-4.4-4.3
			L1.5,6c0-2.4,1.9-4.4,4.3-4.4c0,0,0,0,0,0l17.5-0.1l0,7.1c0,3.2,2.6,5.8,5.9,5.8h0l7.1,0l0.1,12.9l1.4-0.4l-0.1-13.1v-0.2
			c0-0.2-0.1-0.4-0.2-0.5l-13-12.8C24.5,0.1,24.3,0,24.2,0l-0.3,0c0,0-0.1,0-0.1,0l-18,0.1C2.6,0.1,0,2.7,0,6l0.2,37.7
			C0.2,45.3,0.8,46.8,1.9,47.9z M29.3,12.9L29.3,12.9c-2.4,0-4.4-1.9-4.4-4.3l0-6l10.5,10.3L29.3,12.9z"/>
		<path id="Path_238" fill="#0089CE" d="M18.2,27.9c-0.4,0-0.8,0.3-0.8,0.8c0,0.4,0.3,0.8,0.8,0.8c0,0,0,0,0,0h2.6
			c0.4,0,0.8-0.3,0.8-0.8c0-0.4-0.3-0.8-0.8-0.8c0,0,0,0,0,0H18.2z"/>
		<path id="Path_239" fill="#0089CE" d="M30.4,22.2c0-0.4-0.3-0.8-0.8-0.8l0,0H8.4c-0.4,0-0.8,0.3-0.8,0.8c0,0.4,0.3,0.8,0.8,0.8
			c0,0,0,0,0,0h21.3C30,23,30.4,22.6,30.4,22.2z"/>
		<path id="Path_240" fill="#0089CE" d="M8.4,27.9c-0.4,0-0.8,0.3-0.8,0.8c0,0.4,0.3,0.8,0.8,0.8c0,0,0,0,0,0H15
			c0.4,0,0.8-0.3,0.8-0.8c0-0.4-0.3-0.8-0.8-0.8c0,0,0,0,0,0H8.4z"/>
	</g>
	<path id="Path_343" fill="#343A40" d="M30.3,56.3c2.2,1.6,4.6,2.8,7.2,3.7c0.1,0,0.3,0,0.5,0c2.7-0.8,5.2-2.1,7.4-3.7
		c4.9-3.5,7.5-8.1,7.5-13.4v-7.3c0-0.9-0.5-1.7-1.3-2c-4.7-2.1-9.1-4.6-13.1-7.7c-0.3-0.2-0.7-0.2-1,0c-4.1,3-8.5,5.6-13.1,7.7
		c-0.8,0.4-1.3,1.1-1.3,2v7.3C23,48.2,25.5,52.8,30.3,56.3L30.3,56.3z M24.6,35.6c0-0.2,0.1-0.4,0.3-0.5c4.6-2,8.9-4.5,13-7.5
		c4,3,8.4,5.5,13,7.5c0.2,0.1,0.3,0.3,0.3,0.5v7.3c0,3.6-1.4,7.1-4,9.7c-0.8,0.9-1.8,1.6-2.8,2.3c-2.1,1.4-4.3,2.6-6.7,3.4
		c-2.3-0.8-4.5-1.9-6.5-3.4c-0.9-0.6-1.8-1.4-2.6-2.2c-2.6-2.6-4.1-6.1-4-9.8L24.6,35.6z"/>
	<path id="Path_344" fill="#343A40" d="M36.1,46.3c0.3,0.3,0.8,0.3,1.2,0c0,0,0,0,0,0l5.6-5.6c0.3-0.3,0.4-0.8,0-1.2
		c-0.3-0.3-0.8-0.4-1.2,0c0,0,0,0,0,0l-5,5l-2.6-2.6c-0.3-0.3-0.9-0.3-1.2,0c-0.3,0.3-0.3,0.8,0,1.1L36.1,46.3z"/>
</g>
</svg>
