<?xml version="1.0" encoding="utf-8"?>
<!-- Generator: Adobe Illustrator 17.1.0, SVG Export Plug-In . SVG Version: 6.00 Build 0)  -->
<!DOCTYPE svg PUBLIC "-//W3C//DTD SVG 1.1//EN" "http://www.w3.org/Graphics/SVG/1.1/DTD/svg11.dtd">
<svg version="1.1" id="Layer_1" xmlns="http://www.w3.org/2000/svg" xmlns:xlink="http://www.w3.org/1999/xlink" x="0px" y="0px"
	 viewBox="0 0 67.6 72" enable-background="new 0 0 67.6 72" xml:space="preserve">
<g id="stock-market" transform="translate(-24.999 -10)">
	<path id="Path_23" fill="#0089CE" d="M89,22.3c2,0,3.6-1.6,3.6-3.6S91,15,89,15H59.7v-4.1c0-0.5-0.4-0.9-0.9-0.9
		c-0.5,0-0.9,0.4-0.9,0.9V15H28.6c-2,0-3.6,1.6-3.6,3.6s1.6,3.6,3.6,3.6l0,0h1.2v35.5h-1.2c-2,0-3.6,1.6-3.6,3.6
		c0,2,1.6,3.6,3.6,3.6l0,0h27.9L41.4,80.5c-0.3,0.3-0.3,0.9,0,1.2c0.3,0.3,0.9,0.3,1.2,0c0,0,0,0,0,0l15.1-15.4l0,14.2
		c0,0.5,0.4,0.9,0.9,0.9c0.5,0,0.9-0.4,0.9-0.9l0,0l0-14.3l15.6,15.2c0.3,0.3,0.9,0.3,1.2,0s0.3-0.9,0-1.2L60.8,65.1H89
		c2,0,3.7-1.6,3.7-3.6s-1.6-3.7-3.6-3.7c0,0-0.1,0-0.1,0h-1.2l0-35.5H89z M26.8,18.6c0-1,0.8-1.9,1.9-1.9H89c1,0,1.9,0.8,1.9,1.9
		S90,20.5,89,20.5H28.6C27.6,20.5,26.8,19.7,26.8,18.6L26.8,18.6z M90.9,61.4c0,1-0.8,1.9-1.9,1.9H28.6c-1,0-1.9-0.8-1.9-1.9
		c0-1,0.8-1.9,1.9-1.9H89C90,59.6,90.9,60.4,90.9,61.4L90.9,61.4z M86,57.8H31.6l0-35.5H86L86,57.8z"/>
	<path id="Path_24" fill="#343A40" d="M52.5,53V37.1c0-0.6-0.5-1.2-1.2-1.2h-5.2c-0.6,0-1.2,0.5-1.2,1.2V53c0,0.6,0.5,1.2,1.2,1.2
		h5.2C52,54.2,52.5,53.7,52.5,53z M50.7,52.4h-4.1V37.7h4.1L50.7,52.4z"/>
	<path id="Path_25" fill="#343A40" d="M56.2,54.2h5.2c0.6,0,1.2-0.5,1.2-1.2V31.7c0-0.6-0.5-1.2-1.2-1.2h-5.2
		c-0.6,0-1.2,0.5-1.2,1.2V53C55,53.7,55.5,54.2,56.2,54.2z M56.8,32.3h4.1v20.2h-4.1L56.8,32.3z"/>
	<path id="Path_26" fill="#343A40" d="M71.5,26h-5.2c-0.6,0-1.2,0.5-1.2,1.2V53c0,0.6,0.5,1.2,1.2,1.2h5.2c0.6,0,1.2-0.5,1.2-1.2
		V27.2C72.7,26.5,72.2,26,71.5,26z M70.9,52.4h-4.1V27.8h4.1V52.4z"/>
</g>
</svg>
