<svg xmlns="http://www.w3.org/2000/svg" width="67.61" height="72" viewBox="0 0 67.61 72">
  <g id="stock-market" transform="translate(-24.999 -10)">
    <g id="Group_4" data-name="Group 4" transform="translate(26.755 16.752)">
      <path id="Path_20" data-name="Path 20" d="M41.389,58.015a1.88,1.88,0,0,1,1.878-1.878h-4.39a1.878,1.878,0,1,0,0,3.757h4.39A1.88,1.88,0,0,1,41.389,58.015Z" transform="translate(-36.999 -56.137)" fill="rgba(0,137,206,0.45)"/>
      <path id="Path_21" data-name="Path 21" d="M41.389,350.523a1.881,1.881,0,0,1,1.878-1.878h-4.39a1.878,1.878,0,1,0,0,3.757h4.39A1.881,1.881,0,0,1,41.389,350.523Z" transform="translate(-36.999 -305.839)" fill="rgba(0,137,206,0.45)"/>
      <path id="Path_22" data-name="Path 22" d="M69.82,93.808h4.39v35.537H69.82Z" transform="translate(-65.017 -88.295)" fill="rgba(0,137,206,0.45)"/>
    </g>
    <path id="Path_23" data-name="Path 23" d="M88.975,22.265a3.634,3.634,0,1,0,0-7.269H59.682V10.878a.878.878,0,1,0-1.756,0V15H28.634a3.634,3.634,0,1,0,0,7.269H29.8L29.8,57.8H28.634a3.634,3.634,0,1,0,0,7.269h27.9L41.388,80.507a.878.878,0,1,0,1.254,1.229l15.1-15.4.009,14.243a.878.878,0,1,0,1.756,0l-.009-14.3L75.056,81.49a.878.878,0,1,0,1.228-1.256L60.776,65.071h28.2a3.635,3.635,0,1,0,0-7.269h-1.2l.015-35.537ZM26.755,18.63a1.88,1.88,0,0,1,1.878-1.878H88.975a1.878,1.878,0,1,1,0,3.757H28.634a1.88,1.88,0,0,1-1.878-1.878Zm64.1,42.806a1.88,1.88,0,0,1-1.878,1.878H28.634a1.878,1.878,0,1,1,0-3.757H88.975a1.88,1.88,0,0,1,1.878,1.878ZM86.021,57.8H31.555l.006-35.537H86.035Z" transform="translate(0)" fill="#0089ce"/>
    <path id="Path_24" data-name="Path 24" d="M168.651,204.321V188.41a1.172,1.172,0,0,0-1.171-1.171h-5.227a1.172,1.172,0,0,0-1.171,1.171v15.911a1.172,1.172,0,0,0,1.171,1.171h5.227A1.172,1.172,0,0,0,168.651,204.321Zm-1.756-.585h-4.056V189H166.9Z" transform="translate(-116.169 -151.302)" fill="#343a40"/>
    <path id="Path_25" data-name="Path 25" d="M231.312,173.743h5.227a1.172,1.172,0,0,0,1.171-1.171V151.218a1.172,1.172,0,0,0-1.171-1.171h-5.227a1.172,1.172,0,0,0-1.171,1.171v21.354A1.172,1.172,0,0,0,231.312,173.743Zm.585-21.94h4.056v20.183H231.9Z" transform="translate(-175.121 -119.552)" fill="#343a40"/>
    <path id="Path_26" data-name="Path 26" d="M305.6,119.479h-5.227a1.172,1.172,0,0,0-1.171,1.171v25.828a1.172,1.172,0,0,0,1.171,1.171H305.6a1.172,1.172,0,0,0,1.171-1.171V120.65A1.172,1.172,0,0,0,305.6,119.479Zm-.585,26.413h-4.056V121.235h4.056Z" transform="translate(-234.074 -93.458)" fill="#343a40"/>
  </g>
</svg>
