<svg id="tick" xmlns="http://www.w3.org/2000/svg" width="36" height="36" viewBox="0 0 36 36">
  <path id="Path_387" data-name="Path 387" d="M18,0A18,18,0,1,0,36,18,18.02,18.02,0,0,0,18,0Zm0,34.615A16.615,16.615,0,1,1,34.615,18,16.635,16.635,0,0,1,18,34.615Z" fill="#fff"/>
  <path id="Path_388" data-name="Path 388" d="M30.174,15.232,19.534,27.2l-6.41-5.128a.692.692,0,0,0-.865,1.081l6.923,5.538a.693.693,0,0,0,.951-.081L31.21,16.152a.692.692,0,0,0-1.036-.919Z" transform="translate(-3.692 -4.615)" fill="#fff"/>
</svg>
