<?xml version="1.0" encoding="utf-8"?>
<!-- Generator: Adobe Illustrator 17.1.0, SVG Export Plug-In . SVG Version: 6.00 Build 0)  -->
<!DOCTYPE svg PUBLIC "-//W3C//DTD SVG 1.1//EN" "http://www.w3.org/Graphics/SVG/1.1/DTD/svg11.dtd">
<svg version="1.1" id="Layer_1" xmlns="http://www.w3.org/2000/svg" xmlns:xlink="http://www.w3.org/1999/xlink" x="0px" y="0px"
	 viewBox="0 0 41.5 60" enable-background="new 0 0 41.5 60" xml:space="preserve">
<g id="weak" transform="translate(-86 -10)">
	<path id="Path_233" fill="#343A40" d="M127,59.5l-6.7-2.9c-4.4-1.9-9.5-0.8-12.7,2.7c0.2-1.3,0.2-2.7,0.2-4
		c-0.2-4.3-1.4-8.5-3.7-12.2c-0.2-0.3-0.7-0.5-1-0.3s-0.5,0.7-0.3,1c0,0,0,0,0,0c1.9,3.1,3,6.5,3.4,10.1c-1.9-3.7-5.7-6.1-9.9-6.1
		H89c-0.4,0-0.7,0.3-0.7,0.7v1.3c0,6.1,5,11.1,11.1,11.1h6.4c-0.2,0.8-0.4,1.6-0.6,2.3l-0.1,0.2c0,0.1-0.1,0.2-0.1,0.3
		c-0.6,1.8-1.4,3.5-2.4,5.1c-0.2,0.3-0.1,0.8,0.2,1c0.3,0.2,0.8,0.1,1-0.2c0,0,0,0,0,0c1-1.5,1.8-3.2,2.4-4.9l6,2.6
		c5.6,2.4,12.1-0.1,14.6-5.6l0.6-1.3C127.6,60.1,127.4,59.6,127,59.5C127,59.5,127,59.5,127,59.5L127,59.5z M89.8,49.8v-0.6h6.6
		c5.3,0,9.7,4.3,9.7,9.7v0.6h-6.6C94.1,59.5,89.8,55.2,89.8,49.8L89.8,49.8z M125.5,61.2c-2.2,4.8-7.8,7-12.7,4.9l-6-2.6l0.3-0.7
		c2.2-4.8,7.8-7,12.7-4.9l6,2.6L125.5,61.2z"/>
	<g id="Group_39" transform="translate(86 10)">
		<path id="Path_234" fill="#0089CE" d="M17.5,0C8-0.1,0.1,7.5,0,17.1c0.3,9.7,8.3,17.3,18,17c9.3-0.3,16.8-7.7,17-17
			C34.9,7.5,27.1-0.1,17.5,0z M17.5,32.7c-8.7,0.1-15.9-6.9-16-15.6C1.7,8.2,9,1.2,17.9,1.4c8.6,0.2,15.4,7.1,15.6,15.6
			C33.4,25.8,26.2,32.8,17.5,32.7z"/>
		<path id="Path_235" fill="#0089CE" d="M18,8.8V7.6c0-0.4-0.3-0.7-0.7-0.8c-0.4,0-0.7,0.3-0.8,0.7c0,0,0,0,0,0.1v1.3
			c-1.1,0.1-2.1,0.6-2.9,1.4c-0.9,0.9-1.3,2.1-1.2,3.3c0.1,2.3,2.1,3.7,2.8,4.1s0.1,0,0.1,0.1l0.2,0.1c0.1,0.1,0.2,0.1,0.4,0.2
			c0.1,0,0.2,0.1,0.2,0.1l0.3,0.1c0.1,0,0.2,0.1,0.3,0.1c0.2,0.1,0.4,0.1,0.5,0.1l0.5,0.1l0.2,0c1.3,0.2,2.4,1.3,2.5,2.6
			c0,0.9-0.3,1.8-0.9,2.4c-0.6,0.6-1.5,0.8-2.4,0.8c-1.6,0-3-1-3.4-2.5c-0.1-0.4-0.5-0.6-0.9-0.6c-0.4,0.1-0.6,0.5-0.6,0.9
			c0,0,0,0,0,0c0.6,2,2.3,3.4,4.3,3.6v1.4c0,0.4,0.3,0.7,0.7,0.8c0.4,0,0.7-0.3,0.8-0.7c0,0,0,0,0-0.1v-1.4c0.9-0.1,1.8-0.5,2.4-1.1
			c0.9-0.9,1.4-2.2,1.3-3.5c-0.1-2-1.6-3.7-3.6-4l-0.2,0L17.4,17c-0.1,0-0.3-0.1-0.4-0.1c0,0-0.1,0-0.1,0l0,0l-0.3-0.1
			c0,0-0.1,0-0.1,0c-0.2-0.1-0.2-0.1-0.3-0.2l-0.2-0.1l0,0l0,0c-0.3-0.2-2-1.3-2.1-2.9c-0.1-0.8,0.2-1.6,0.8-2.2
			c0.8-0.7,1.9-1.1,2.9-1c1.1,0,3,0.9,3.2,2.5c0,0.4,0.4,0.7,0.8,0.7c0.4,0,0.7-0.4,0.7-0.8c0,0,0,0,0,0C22,10.2,19.5,9,18,8.8
			L18,8.8z"/>
	</g>
</g>
</svg>
