<svg xmlns="http://www.w3.org/2000/svg" width="41.463" height="60" viewBox="0 0 41.463 60">
  <g id="weak" transform="translate(-86 -10)">
    <path id="Path_232" data-name="Path 232" d="M100.439,37.6a15.807,15.807,0,0,1,14.829-15.553q-.6-.045-1.219-.045A15.846,15.846,0,0,0,98,37.6a15.846,15.846,0,0,0,16.049,15.6q.615,0,1.219-.045A15.808,15.808,0,0,1,100.439,37.6Z" transform="translate(-10.537 -10.537)" fill="rgba(0,137,206,0.45)"/>
    <path id="Path_233" data-name="Path 233" d="M143.583,294.592l-6.718-2.924a11.141,11.141,0,0,0-12.679,2.7,24.6,24.6,0,0,0,.185-4.011,25.372,25.372,0,0,0-3.674-12.2.732.732,0,1,0-1.251.76,23.987,23.987,0,0,1,3.368,10.079A11.132,11.132,0,0,0,112.9,282.9h-7.307a.732.732,0,0,0-.732.732v1.336a11.132,11.132,0,0,0,11.12,11.12h6.431c-.175.825-.386,1.606-.62,2.339l-.1.226a.73.73,0,0,0-.06.253,24.538,24.538,0,0,1-2.436,5.115.732.732,0,1,0,1.237.782,25.936,25.936,0,0,0,2.382-4.86l5.971,2.6a11.105,11.105,0,0,0,14.589-5.644l.585-1.335a.732.732,0,0,0-.378-.964Zm-37.261-9.63v-.6H112.9a9.667,9.667,0,0,1,9.656,9.657v.6h-6.576A9.667,9.667,0,0,1,106.322,284.963ZM142.035,296.3a9.627,9.627,0,0,1-12.664,4.89l-6.045-2.632.291-.663a9.627,9.627,0,0,1,12.664-4.889l6.046,2.631Z" transform="translate(-16.559 -235.138)" fill="#343a40"/>
    <g id="Group_39" data-name="Group 39" transform="translate(86 10)">
      <path id="Path_234" data-name="Path 234" d="M103.512,10A17.31,17.31,0,0,0,86,27.061a17.518,17.518,0,0,0,35.023,0A17.31,17.31,0,0,0,103.512,10Zm0,32.658a15.846,15.846,0,0,1-16.049-15.6,16.055,16.055,0,0,1,32.1,0A15.845,15.845,0,0,1,103.512,42.658Z" transform="translate(-86 -10)" fill="#0089ce"/>
      <path id="Path_235" data-name="Path 235" d="M191.816,68.232V67.025a.732.732,0,1,0-1.463,0v1.253a5.2,5.2,0,0,0-2.874,1.368,4.245,4.245,0,0,0-1.185,3.324c.1,2.28,2.141,3.684,2.78,4.069s.072.045.081.05l.166.1c.118.068.183.106.371.2a2.6,2.6,0,0,0,.244.108l.293.111a2.492,2.492,0,0,0,.255.091c.186.055.365.107.51.134l.473.091.213.041a2.785,2.785,0,0,1,2.46,2.606,3.44,3.44,0,0,1-.9,2.433,3.059,3.059,0,0,1-2.353.75,3.548,3.548,0,0,1-3.413-2.534.732.732,0,1,0-1.422.346,4.986,4.986,0,0,0,4.3,3.612v1.392a.732.732,0,1,0,1.463,0v-1.39a4.126,4.126,0,0,0,2.443-1.127,4.949,4.949,0,0,0,1.347-3.5,4.275,4.275,0,0,0-3.645-4.021l-.211-.041-.481-.093c-.084-.016-.267-.07-.365-.1a1.03,1.03,0,0,1-.112-.04l-.029-.012-.306-.116a1.127,1.127,0,0,1-.1-.046c-.151-.076-.191-.1-.3-.161l-.162-.093-.038-.024-.03-.019c-.334-.2-2-1.279-2.068-2.873a2.842,2.842,0,0,1,.758-2.228,4.133,4.133,0,0,1,2.948-1.012c1.057.044,3.037.933,3.218,2.548a.732.732,0,1,0,1.454-.164c-.273-2.428-2.8-3.627-4.317-3.819Z" transform="translate(-173.829 -59.428)" fill="#0089ce"/>
    </g>
  </g>
</svg>
