<?xml version="1.0" standalone="no"?>
<!DOCTYPE svg PUBLIC "-//W3C//DTD SVG 20010904//EN"
 "http://www.w3.org/TR/2001/REC-SVG-20010904/DTD/svg10.dtd">
<svg version="1.0" xmlns="http://www.w3.org/2000/svg"
 width="260.000000pt" height="260.000000pt" viewBox="0 0 260.000000 260.000000"
 preserveAspectRatio="xMidYMid meet">
<metadata>
Created by potrace 1.11, written by Peter Selinger 2001-2013
</metadata>
<g transform="translate(0.000000,260.000000) scale(0.100000,-0.100000)"
fill="#000000" stroke="none">
<path d="M0 1300 l0 -1300 1300 0 1300 0 0 123 0 122 -261 240 c-143 131 -289
269 -324 306 l-65 67 0 419 c0 242 -5 445 -11 483 -12 77 -39 121 -94 152 -40
23 -41 23 -495 26 -250 1 -466 5 -480 8 -28 6 -392 362 -384 376 7 12 1681 10
1723 -2 19 -5 50 -24 68 -42 64 -62 63 -49 63 -898 0 -856 -2 -829 70 -917 21
-26 73 -84 114 -128 l75 -80 1 1173 0 1172 -1300 0 -1300 0 0 -1300z m578 529
c83 -92 82 -79 82 -554 0 -247 5 -438 11 -464 14 -61 44 -100 98 -125 44 -20
64 -21 506 -27 253 -3 462 -6 464 -7 3 -1 67 -64 144 -140 167 -165 468 -479
447 -467 -8 5 -67 42 -130 82 -197 126 -197 126 -400 134 -96 4 -446 8 -778 8
-519 1 -608 3 -639 16 -50 21 -72 42 -94 90 -18 38 -19 87 -19 892 0 670 3
852 12 855 11 4 162 -146 296 -293z"/>
</g>
</svg>
