<svg xmlns="http://www.w3.org/2000/svg" width="130.89" height="40.006" viewBox="0 0 130.89 40.006">
  <g id="InvesQ_Logo" data-name="InvesQ Logo" transform="translate(-0.003 0)">
    <g id="Group_55" data-name="Group 55">
      <g id="Group_52" data-name="Group 52" transform="translate(0 0.285)">
        <path id="Path_311" data-name="Path 311" d="M478.108,348.475c-2.622-2.7-5.244-5.441-7.912-8.109a2.439,2.439,0,0,0-1.592-.5c-3.471-.045-6.957,0-10.443-.015-2.425-.015-3.365-.985-3.365-3.4,0-3.517.03-7.048-.03-10.565a2.973,2.973,0,0,0-.712-1.743c-1.379-1.561-2.85-3.047-4.29-4.547-.106.061-.2.136-.3.2-.015.379-.061.743-.061,1.122v21.235c0,2.107.894,3.107,2.986,3.107,6.442.03,12.884,0,19.326.061a4.973,4.973,0,0,1,2.319.637C475.44,346.7,476.774,347.626,478.108,348.475Z" transform="translate(-449.4 -316.493)" fill="#0089ce" fill-rule="evenodd"/>
        <path id="Path_312" data-name="Path 312" d="M468.8,300.745c1.682,1.682,3.319,3.365,5.017,4.987a1.72,1.72,0,0,0,1.106.227c3.562.015,7.124,0,10.671.015,2.455,0,3.456,1,3.471,3.456.015,3.562,0,7.124.015,10.671a1.928,1.928,0,0,0,.273,1.213c2.289,2.258,6.472,6.017,8.715,8.155-.227-.394-2.3-2.546-2.683-3.016a5.246,5.246,0,0,1-.985-3.653q.046-9.617.015-19.219a2.659,2.659,0,0,0-2.91-2.986c-7.473-.03-14.945-.015-22.418-.015C469.043,300.579,468.982,300.639,468.8,300.745Z" transform="translate(-465.859 -300.351)" fill="#0089ce" fill-rule="evenodd"/>
        <path id="Path_313" data-name="Path 313" d="M471,299.1" transform="translate(-467.726 -299.1)" fill="#0089ce"/>
      </g>
      <g id="Group_53" data-name="Group 53" transform="translate(33.414)">
        <path id="Path_314" data-name="Path 314" d="M237.753,524.4v24.176H234.1V524.4Z" transform="translate(-234.1 -523.96)" fill="#0089ce"/>
        <path id="Path_315" data-name="Path 315" d="M292.1,580.924h3.532v1.41A5.751,5.751,0,0,1,299.8,580.5a5.271,5.271,0,0,1,4.153,1.682c.849.955,1.288,2.5,1.288,4.653v9.352H301.71v-8.518a5.7,5.7,0,0,0-.621-3.122,2.522,2.522,0,0,0-2.228-.879,2.7,2.7,0,0,0-2.486,1.152,7.879,7.879,0,0,0-.728,3.986v7.366h-3.532V580.924Z" transform="translate(-283.309 -571.557)" fill="#0089ce"/>
        <path id="Path_316" data-name="Path 316" d="M395.171,583.3l3.941,8.564,3.926-8.564h3.956l-7.927,16.294L391.2,583.3Z" transform="translate(-367.388 -573.933)" fill="#0089ce"/>
        <path id="Path_317" data-name="Path 317" d="M517.5,589.382H506.568a4.563,4.563,0,0,0,1.228,2.986,3.734,3.734,0,0,0,2.774,1.091,3.679,3.679,0,0,0,2.183-.621,9.048,9.048,0,0,0,1.925-2.319l2.971,1.652a11.317,11.317,0,0,1-1.455,2.016,8.078,8.078,0,0,1-1.637,1.379,6.512,6.512,0,0,1-1.9.788,9.237,9.237,0,0,1-2.213.258,7.171,7.171,0,0,1-5.487-2.2,8.209,8.209,0,0,1-2.061-5.851,8.434,8.434,0,0,1,2-5.851,6.928,6.928,0,0,1,5.35-2.213,6.812,6.812,0,0,1,5.32,2.152,8.481,8.481,0,0,1,1.94,5.9Zm-3.607-2.88a3.379,3.379,0,0,0-3.562-2.819,3.569,3.569,0,0,0-1.213.2,3.78,3.78,0,0,0-1.031.561,3.645,3.645,0,0,0-.788.879,4.757,4.757,0,0,0-.5,1.167h7.094Z" transform="translate(-462.157 -571.557)" fill="#0089ce"/>
        <path id="Path_318" data-name="Path 318" d="M627.7,583.615l-2.91,1.546c-.455-.94-1.031-1.41-1.713-1.41a1.194,1.194,0,0,0-.834.318,1.075,1.075,0,0,0-.349.818c0,.591.682,1.167,2.031,1.743a12.159,12.159,0,0,1,3.774,2.228,3.793,3.793,0,0,1,.97,2.743,4.85,4.85,0,0,1-1.622,3.7,5.831,5.831,0,0,1-9.246-2.334l3-1.394a7.2,7.2,0,0,0,.955,1.394,2.179,2.179,0,0,0,1.531.591c1.2,0,1.789-.546,1.789-1.622,0-.621-.455-1.213-1.379-1.758-.349-.182-.712-.349-1.061-.515s-.712-.333-1.076-.515a6.644,6.644,0,0,1-2.167-1.5,3.711,3.711,0,0,1-.8-2.455,4.356,4.356,0,0,1,1.364-3.289,4.792,4.792,0,0,1,3.38-1.3,4.575,4.575,0,0,1,4.363,3.011Z" transform="translate(-559.642 -571.641)" fill="#0089ce"/>
        <path id="Path_319" data-name="Path 319" d="M732.8,546.555h-4.58l-1.9-1.94a12.244,12.244,0,0,1-6.73,1.94,12.631,12.631,0,0,1-8.534-3.259A11.7,11.7,0,0,1,707,534.141a12.031,12.031,0,0,1,3.835-9.109,12.624,12.624,0,0,1,17.052-.424,12.154,12.154,0,0,1,4.38,9.731,11.815,11.815,0,0,1-3.458,8.354Zm-10.034-10,3.5,3.486a8.269,8.269,0,0,0,2.319-5.972,9.01,9.01,0,0,0-2.577-6.533,8.687,8.687,0,0,0-6.427-2.622,8.4,8.4,0,0,0-6.381,2.637,9.153,9.153,0,0,0-2.516,6.624,8.52,8.52,0,0,0,2.592,6.412,8.723,8.723,0,0,0,6.184,2.562,8.606,8.606,0,0,0,4.274-1.076l-5.684-5.517h4.714Z" transform="translate(-635.321 -521.5)" fill="#0089ce"/>
      </g>
      <g id="Group_54" data-name="Group 54" transform="translate(35.748 29.92)">
        <path id="Path_320" data-name="Path 320" d="M249.5,722.676a.614.614,0,0,1,.167-.409.507.507,0,0,1,.409-.167.56.56,0,0,1,.409.167.585.585,0,0,1,.167.409.576.576,0,0,1-1.152,0Zm.182,1.849h.788v4.744h-.788Z" transform="translate(-249.5 -721.615)" fill="#fff"/>
        <path id="Path_321" data-name="Path 321" d="M267.73,738.543c0-.212,0-.424-.015-.606s-.015-.364-.015-.515h.743a3.169,3.169,0,0,0,.015.379c0,.121.015.258.015.394h.015a1.624,1.624,0,0,1,.227-.333,1.681,1.681,0,0,1,.349-.288,1.533,1.533,0,0,1,.455-.2,2.064,2.064,0,0,1,.546-.076,2.174,2.174,0,0,1,.8.136,1.5,1.5,0,0,1,.561.394,1.686,1.686,0,0,1,.333.606,2.608,2.608,0,0,1,.106.788v2.925h-.788V739.3a1.571,1.571,0,0,0-.258-.94.99.99,0,0,0-.818-.349,1.5,1.5,0,0,0-.667.136,1.221,1.221,0,0,0-.455.379,1.43,1.43,0,0,0-.258.576,2.85,2.85,0,0,0-.091.743v2.3h-.788v-3.607Z" transform="translate(-264.941 -734.511)" fill="#fff"/>
        <path id="Path_322" data-name="Path 322" d="M305.913,731.131h-1.394V733.5a3.69,3.69,0,0,0,.015.424.842.842,0,0,0,.076.349.513.513,0,0,0,.212.227.744.744,0,0,0,.409.091,1.372,1.372,0,0,0,.349-.045,1.356,1.356,0,0,0,.349-.121l.03.712a2,2,0,0,1-.455.136,2.6,2.6,0,0,1-.47.045,1.691,1.691,0,0,1-.682-.106.918.918,0,0,1-.394-.318,1.227,1.227,0,0,1-.182-.5,4.47,4.47,0,0,1-.045-.667V731.12H302.7v-.667h1.031V729.1h.788v1.349h1.394Z" transform="translate(-294.636 -727.554)" fill="#fff"/>
        <path id="Path_323" data-name="Path 323" d="M334.7,741.3a2.357,2.357,0,0,1-.925.758,2.841,2.841,0,0,1-1.182.212,2.313,2.313,0,0,1-1-.2,2.275,2.275,0,0,1-.758-.53,2.185,2.185,0,0,1-.47-.788,2.9,2.9,0,0,1-.167-.97,2.671,2.671,0,0,1,.182-1,2.337,2.337,0,0,1,.5-.788,2.3,2.3,0,0,1,.773-.515,2.572,2.572,0,0,1,.97-.182,2.492,2.492,0,0,1,.909.167,1.926,1.926,0,0,1,.712.485,2.177,2.177,0,0,1,.455.773,3.153,3.153,0,0,1,.167,1.046v.258h-3.835a1.546,1.546,0,0,0,.152.576,1.837,1.837,0,0,0,.333.485,1.758,1.758,0,0,0,.47.333,1.524,1.524,0,0,0,.591.121,1.826,1.826,0,0,0,.864-.182,1.923,1.923,0,0,0,.637-.53Zm-.682-1.925a1.385,1.385,0,0,0-.394-.97,1.4,1.4,0,0,0-1.031-.364,1.529,1.529,0,0,0-1.061.364,1.462,1.462,0,0,0-.485.97Z" transform="translate(-317.968 -734.511)" fill="#fff"/>
        <path id="Path_324" data-name="Path 324" d="M371.2,718.9h.788v7.654H371.2Z" transform="translate(-352.754 -718.9)" fill="#fff"/>
        <path id="Path_325" data-name="Path 325" d="M389,718.9h.788v7.654H389Z" transform="translate(-367.856 -718.9)" fill="#fff"/>
        <path id="Path_326" data-name="Path 326" d="M405.6,722.676a.614.614,0,0,1,.167-.409.507.507,0,0,1,.409-.167.56.56,0,0,1,.409.167.585.585,0,0,1,.167.409.579.579,0,0,1-.985.409A.507.507,0,0,1,405.6,722.676Zm.182,1.849h.788v4.744h-.788Z" transform="translate(-381.94 -721.615)" fill="#fff"/>
        <path id="Path_327" data-name="Path 327" d="M427.2,742.123a2.718,2.718,0,0,1-.667,1.97,2.543,2.543,0,0,1-1.925.667,3.653,3.653,0,0,1-1.258-.2,2.863,2.863,0,0,1-1.061-.7l.561-.652a2.622,2.622,0,0,0,.788.606,2.457,2.457,0,0,0,1.849.061,1.4,1.4,0,0,0,.546-.424,1.724,1.724,0,0,0,.288-.606,2.777,2.777,0,0,0,.076-.712v-.606h-.015a1.658,1.658,0,0,1-.743.667,2.28,2.28,0,0,1-.925.212,2.7,2.7,0,0,1-1.016-.182,2.568,2.568,0,0,1-.8-.5,2.1,2.1,0,0,1-.515-.773,2.569,2.569,0,0,1-.182-.97,2.915,2.915,0,0,1,.182-1.046,2.158,2.158,0,0,1,.515-.788,2.1,2.1,0,0,1,.788-.485,2.778,2.778,0,0,1,1.031-.167,1.775,1.775,0,0,1,.485.061,1.739,1.739,0,0,1,.47.167,1.988,1.988,0,0,1,.409.288,1.6,1.6,0,0,1,.3.409h.015v-.8h.788v4.5Zm-4.153-2.152a1.589,1.589,0,0,0,.136.667,1.654,1.654,0,0,0,.364.531,1.838,1.838,0,0,0,.531.364,1.571,1.571,0,0,0,.652.136,1.61,1.61,0,0,0,1.243-.515,1.559,1.559,0,0,0,.333-.546,1.9,1.9,0,0,0,.106-.652,2.038,2.038,0,0,0-.121-.7,1.466,1.466,0,0,0-.349-.546,1.833,1.833,0,0,0-.53-.364,1.7,1.7,0,0,0-.682-.121,1.662,1.662,0,0,0-.682.136,1.586,1.586,0,0,0-.864.94,1.5,1.5,0,0,0-.135.67Z" transform="translate(-396.023 -734.681)" fill="#fff"/>
        <path id="Path_328" data-name="Path 328" d="M469.2,741.3a2.357,2.357,0,0,1-.925.758,2.841,2.841,0,0,1-1.182.212,2.313,2.313,0,0,1-1-.2,2.275,2.275,0,0,1-.758-.53,2.184,2.184,0,0,1-.47-.788,2.9,2.9,0,0,1-.167-.97,2.669,2.669,0,0,1,.182-1,2.337,2.337,0,0,1,.5-.788,2.3,2.3,0,0,1,.773-.515,2.567,2.567,0,0,1,.97-.182,2.491,2.491,0,0,1,.909.167,1.925,1.925,0,0,1,.712.485,2.177,2.177,0,0,1,.455.773,3.154,3.154,0,0,1,.167,1.046v.258h-3.835a1.546,1.546,0,0,0,.152.576,1.837,1.837,0,0,0,.333.485,1.758,1.758,0,0,0,.47.333,1.525,1.525,0,0,0,.591.121,1.826,1.826,0,0,0,.864-.182,1.923,1.923,0,0,0,.637-.53Zm-.667-1.925a1.385,1.385,0,0,0-.394-.97,1.4,1.4,0,0,0-1.031-.364,1.529,1.529,0,0,0-1.061.364,1.462,1.462,0,0,0-.485.97Z" transform="translate(-432.082 -734.511)" fill="#fff"/>
        <path id="Path_329" data-name="Path 329" d="M505.13,738.543c0-.212,0-.424-.015-.606s-.015-.364-.015-.515h.743a3.175,3.175,0,0,0,.015.379c0,.121.015.258.015.394h.015a1.623,1.623,0,0,1,.227-.333,1.681,1.681,0,0,1,.349-.288,1.535,1.535,0,0,1,.455-.2,2.064,2.064,0,0,1,.546-.076,2.174,2.174,0,0,1,.8.136,1.5,1.5,0,0,1,.561.394,1.686,1.686,0,0,1,.333.606,2.609,2.609,0,0,1,.106.788v2.925h-.788V739.3a1.571,1.571,0,0,0-.258-.94.99.99,0,0,0-.818-.349,1.5,1.5,0,0,0-.667.136,1.221,1.221,0,0,0-.455.379,1.431,1.431,0,0,0-.258.576,2.851,2.851,0,0,0-.091.743v2.3h-.788v-3.607Z" transform="translate(-466.358 -734.511)" fill="#fff"/>
        <path id="Path_330" data-name="Path 330" d="M543.213,731.131h-1.4V733.5a3.682,3.682,0,0,0,.015.424.841.841,0,0,0,.076.349.513.513,0,0,0,.212.227.744.744,0,0,0,.409.091,1.372,1.372,0,0,0,.349-.045,1.357,1.357,0,0,0,.349-.121l.03.712a2,2,0,0,1-.455.136,2.6,2.6,0,0,1-.47.045,1.691,1.691,0,0,1-.682-.106.918.918,0,0,1-.394-.318,1.226,1.226,0,0,1-.182-.5,4.466,4.466,0,0,1-.045-.667V731.12H540v-.667h1.031V729.1h.788v1.349h1.4Z" transform="translate(-495.968 -727.554)" fill="#fff"/>
        <path id="Path_331" data-name="Path 331" d="M588.8,722.676a.614.614,0,0,1,.167-.409.507.507,0,0,1,.409-.167.56.56,0,0,1,.409.167.585.585,0,0,1,.167.409.576.576,0,0,1-1.152,0Zm.182,1.849h.788v4.744h-.788Z" transform="translate(-537.371 -721.615)" fill="#fff"/>
        <path id="Path_332" data-name="Path 332" d="M607.13,738.543c0-.212,0-.424-.015-.606s-.015-.364-.015-.515h.743a3.156,3.156,0,0,0,.015.379c0,.121.015.258.015.394h.015a1.624,1.624,0,0,1,.227-.333,1.683,1.683,0,0,1,.349-.288,1.532,1.532,0,0,1,.455-.2,2.062,2.062,0,0,1,.546-.076,2.175,2.175,0,0,1,.8.136,1.5,1.5,0,0,1,.561.394,1.686,1.686,0,0,1,.333.606,2.611,2.611,0,0,1,.106.788v2.925h-.788V739.3a1.572,1.572,0,0,0-.258-.94.99.99,0,0,0-.819-.349,1.5,1.5,0,0,0-.667.136,1.222,1.222,0,0,0-.455.379,1.43,1.43,0,0,0-.258.576,2.854,2.854,0,0,0-.091.743v2.3h-.788v-3.607Z" transform="translate(-552.898 -734.511)" fill="#fff"/>
        <path id="Path_333" data-name="Path 333" d="M644.6,742.844h-.864L641.8,738.1h.925l1.485,3.714h.015l1.41-3.714h.849Z" transform="translate(-582.338 -735.19)" fill="#fff"/>
        <path id="Path_334" data-name="Path 334" d="M682.7,741.3a2.356,2.356,0,0,1-.925.758,2.841,2.841,0,0,1-1.182.212,2.358,2.358,0,0,1-1-.2,2.278,2.278,0,0,1-.758-.53,2.183,2.183,0,0,1-.47-.788,2.9,2.9,0,0,1-.167-.97,2.67,2.67,0,0,1,.182-1,2.335,2.335,0,0,1,.5-.788,2.308,2.308,0,0,1,.773-.515,2.572,2.572,0,0,1,.97-.182,2.492,2.492,0,0,1,.909.167,1.925,1.925,0,0,1,.712.485,2.177,2.177,0,0,1,.455.773,3.153,3.153,0,0,1,.167,1.046v.258h-3.835a1.547,1.547,0,0,0,.152.576,1.835,1.835,0,0,0,.333.485,1.76,1.76,0,0,0,.47.333,1.525,1.525,0,0,0,.591.121,1.825,1.825,0,0,0,.864-.182,1.924,1.924,0,0,0,.637-.53Zm-.682-1.925a1.385,1.385,0,0,0-.394-.97,1.4,1.4,0,0,0-1.031-.364,1.456,1.456,0,0,0-1.546,1.334Z" transform="translate(-613.221 -734.511)" fill="#fff"/>
        <path id="Path_335" data-name="Path 335" d="M715.852,740.838a1.885,1.885,0,0,0,.515.47,1.255,1.255,0,0,0,.7.167,1.492,1.492,0,0,0,.364-.045,1.1,1.1,0,0,0,.333-.136.7.7,0,0,0,.242-.227.576.576,0,0,0,.091-.333.529.529,0,0,0-.091-.318,1.02,1.02,0,0,0-.227-.212,1.008,1.008,0,0,0-.318-.136c-.121-.03-.242-.061-.379-.091a6.476,6.476,0,0,1-.637-.167,1.892,1.892,0,0,1-.531-.243,1.089,1.089,0,0,1-.364-.379,1.137,1.137,0,0,1-.136-.591,1.164,1.164,0,0,1,.152-.606,1.419,1.419,0,0,1,.409-.44,1.888,1.888,0,0,1,.561-.258,2.337,2.337,0,0,1,.652-.091,2.177,2.177,0,0,1,.94.2,1.391,1.391,0,0,1,.667.652l-.652.44a1.271,1.271,0,0,0-.394-.409,1.093,1.093,0,0,0-.606-.151,1.346,1.346,0,0,0-.333.045,1.057,1.057,0,0,0-.3.121.571.571,0,0,0-.212.212.5.5,0,0,0-.091.288.383.383,0,0,0,.091.258.658.658,0,0,0,.258.182,1.4,1.4,0,0,0,.379.136,3.979,3.979,0,0,0,.455.106,5.567,5.567,0,0,1,.591.152,1.957,1.957,0,0,1,.5.258,1.105,1.105,0,0,1,.333.409,1.416,1.416,0,0,1,.121.591,1.337,1.337,0,0,1-.167.682,1.359,1.359,0,0,1-.424.455,1.975,1.975,0,0,1-.606.258,2.658,2.658,0,0,1-.7.076,2.692,2.692,0,0,1-1.046-.182,1.784,1.784,0,0,1-.788-.7Z" transform="translate(-644.613 -734.426)" fill="#fff"/>
        <path id="Path_336" data-name="Path 336" d="M748.013,731.131h-1.394V733.5a3.668,3.668,0,0,0,.015.424.841.841,0,0,0,.076.349.514.514,0,0,0,.212.227.744.744,0,0,0,.409.091,1.373,1.373,0,0,0,.349-.045,1.359,1.359,0,0,0,.349-.121l.03.712a2,2,0,0,1-.455.136,2.6,2.6,0,0,1-.47.045,1.693,1.693,0,0,1-.682-.106.919.919,0,0,1-.394-.318,1.226,1.226,0,0,1-.182-.5,4.473,4.473,0,0,1-.045-.667V731.12H744.8v-.667h1.031V729.1h.788v1.349h1.394Z" transform="translate(-669.726 -727.554)" fill="#fff"/>
        <path id="Path_337" data-name="Path 337" d="M773.4,722.676a.614.614,0,0,1,.167-.409.507.507,0,0,1,.409-.167.559.559,0,0,1,.409.167.585.585,0,0,1,.167.409.576.576,0,0,1-1.152,0Zm.182,1.849h.788v4.744h-.788Z" transform="translate(-693.991 -721.615)" fill="#fff"/>
        <path id="Path_338" data-name="Path 338" d="M791.73,738.543c0-.212,0-.424-.015-.606s-.015-.364-.015-.515h.743a3.208,3.208,0,0,0,.015.379,3.3,3.3,0,0,1,.015.394h.015a1.628,1.628,0,0,1,.227-.333,1.679,1.679,0,0,1,.349-.288,1.534,1.534,0,0,1,.455-.2,2.064,2.064,0,0,1,.546-.076,2.176,2.176,0,0,1,.8.136,1.5,1.5,0,0,1,.561.394,1.687,1.687,0,0,1,.333.606,2.611,2.611,0,0,1,.106.788v2.925h-.788V739.3a1.572,1.572,0,0,0-.258-.94.99.99,0,0,0-.819-.349,1.5,1.5,0,0,0-.667.136,1.221,1.221,0,0,0-.455.379,1.429,1.429,0,0,0-.258.576,2.854,2.854,0,0,0-.091.743v2.3h-.788v-3.607Z" transform="translate(-709.517 -734.511)" fill="#fff"/>
        <path id="Path_339" data-name="Path 339" d="M833.9,742.123a2.718,2.718,0,0,1-.667,1.97,2.543,2.543,0,0,1-1.925.667,3.652,3.652,0,0,1-1.258-.2,2.863,2.863,0,0,1-1.061-.7l.561-.652a2.623,2.623,0,0,0,.788.606,2.457,2.457,0,0,0,1.849.061,1.3,1.3,0,0,0,.546-.424,1.72,1.72,0,0,0,.288-.606,2.779,2.779,0,0,0,.076-.712v-.606h-.015a1.658,1.658,0,0,1-.743.667,2.28,2.28,0,0,1-.925.212,2.75,2.75,0,0,1-1.016-.182,2.568,2.568,0,0,1-.8-.5,2.1,2.1,0,0,1-.515-.773,2.567,2.567,0,0,1-.182-.97,2.912,2.912,0,0,1,.182-1.046,2.158,2.158,0,0,1,.515-.788,2.094,2.094,0,0,1,.788-.485,2.778,2.778,0,0,1,1.031-.167,1.772,1.772,0,0,1,.485.061,1.735,1.735,0,0,1,.47.167,1.985,1.985,0,0,1,.409.288,1.6,1.6,0,0,1,.3.409h.015v-.8h.788v4.5Zm-4.153-2.152a1.588,1.588,0,0,0,.136.667,1.652,1.652,0,0,0,.364.531,1.835,1.835,0,0,0,.53.364,1.57,1.57,0,0,0,.652.136,1.61,1.61,0,0,0,1.243-.515,1.561,1.561,0,0,0,.333-.546,1.9,1.9,0,0,0,.106-.652,2.037,2.037,0,0,0-.121-.7,1.464,1.464,0,0,0-.349-.546,1.837,1.837,0,0,0-.53-.364,1.7,1.7,0,0,0-.682-.121,1.662,1.662,0,0,0-.682.136,1.481,1.481,0,0,0-.531.379,2,2,0,0,0-.47,1.228Z" transform="translate(-741.079 -734.681)" fill="#fff"/>
      </g>
    </g>
  </g>
</svg>
