<svg id="Group_73" data-name="Group 73" xmlns="http://www.w3.org/2000/svg" width="105.781" height="80" viewBox="0 0 105.781 80">
  <g id="Group_70" data-name="Group 70" transform="translate(35.374)">
    <path id="Path_355" data-name="Path 355" d="M481.648,347.864c-2.853-2.94-5.7-5.918-8.611-8.821a2.7,2.7,0,0,0-1.734-.551c-3.783-.045-7.567,0-11.35-.023-2.64-.015-3.655-1.066-3.654-3.695,0-3.829.038-7.661-.033-11.488a3.226,3.226,0,0,0-.777-1.9c-1.494-1.7-3.1-3.307-4.658-4.948l-.328.21c-.022.405-.062.81-.062,1.215q-.006,11.551,0,23.1c0,2.3.977,3.375,3.241,3.386,7.007.037,14.012,0,21.018.06a5.626,5.626,0,0,1,2.528.693C478.759,345.935,480.2,346.945,481.648,347.864Z" transform="translate(-450.436 -313.08)" fill="#fff" fill-rule="evenodd"/>
    <path id="Path_356" data-name="Path 356" d="M469.792,297.71c1.831,1.833,3.616,3.661,5.46,5.428a1.937,1.937,0,0,0,1.206.244c3.871.016,7.74,0,11.612.01,2.668,0,3.762,1.085,3.773,3.756.015,3.869,0,7.74.018,11.609a2.056,2.056,0,0,0,.3,1.315c2.49,2.451,7.034,6.538,9.476,8.865-.243-.431-2.5-2.767-2.918-3.273a5.73,5.73,0,0,1-1.073-3.981c.038-6.968.026-13.934.015-20.9,0-2.082-1.081-3.236-3.158-3.243-8.128-.032-16.255-.014-24.381-.01C470.052,297.53,469.985,297.6,469.792,297.71Z" transform="translate(-466.601 -297.283)" fill="#fff" fill-rule="evenodd"/>
    <path id="Path_357" data-name="Path 357" d="M471.989,296.079" transform="translate(-468.436 -296.079)" fill="#0089ce" stroke="#000" stroke-miterlimit="10" stroke-width="6.52"/>
  </g>
  <g id="Group_71" data-name="Group 71" transform="translate(0 36.531)">
    <path id="Path_358" data-name="Path 358" d="M239.124,521.42v26.295h-3.968V521.42Z" transform="translate(-235.156 -520.926)" fill="#fff"/>
    <path id="Path_359" data-name="Path 359" d="M293.111,577.976h3.849v1.533a6.28,6.28,0,0,1,4.53-1.993A5.721,5.721,0,0,1,306,579.338q1.4,1.55,1.4,5.058v10.167H303.55V585.3a6.078,6.078,0,0,0-.681-3.389,2.749,2.749,0,0,0-2.418-.954,2.957,2.957,0,0,0-2.708,1.26,8.67,8.67,0,0,0-.783,4.342v8h-3.849Z" transform="translate(-283.557 -567.775)" fill="#fff"/>
    <path id="Path_360" data-name="Path 360" d="M396.68,580.305l4.292,9.316,4.275-9.316h4.309l-8.617,17.728-8.549-17.728Z" transform="translate(-366.536 -570.104)" fill="#fff"/>
    <path id="Path_361" data-name="Path 361" d="M519.745,587.172H507.858a5.036,5.036,0,0,0,1.328,3.253,4.049,4.049,0,0,0,3.014,1.192,3.921,3.921,0,0,0,2.367-.681,9.693,9.693,0,0,0,2.094-2.52l3.236,1.8a12.876,12.876,0,0,1-1.584,2.188,8.42,8.42,0,0,1-1.788,1.5,7.185,7.185,0,0,1-2.061.86,10.033,10.033,0,0,1-2.4.272,7.807,7.807,0,0,1-5.96-2.384,8.942,8.942,0,0,1-2.248-6.369,9.19,9.19,0,0,1,2.18-6.369,8.307,8.307,0,0,1,11.614-.068,9.179,9.179,0,0,1,2.112,6.42Zm-3.934-3.134a3.671,3.671,0,0,0-3.866-3.066,3.971,3.971,0,0,0-1.311.213,3.756,3.756,0,0,0-1.115.613,3.881,3.881,0,0,0-.86.962,4.46,4.46,0,0,0-.545,1.277Z" transform="translate(-459.674 -567.775)" fill="#fff"/>
    <path id="Path_362" data-name="Path 362" d="M629.6,580.8l-3.168,1.686q-.749-1.533-1.857-1.533a1.276,1.276,0,0,0-.9.349,1.168,1.168,0,0,0-.375.894q0,.954,2.214,1.89a13.2,13.2,0,0,1,4.1,2.418,4.138,4.138,0,0,1,1.056,2.98,5.223,5.223,0,0,1-1.771,4.019,6.351,6.351,0,0,1-10.065-2.538l3.27-1.516a7.113,7.113,0,0,0,1.039,1.516,2.371,2.371,0,0,0,1.669.647q1.941,0,1.941-1.771,0-1.022-1.5-1.907-.579-.289-1.158-.562t-1.175-.562a7.193,7.193,0,0,1-2.35-1.635,4.026,4.026,0,0,1-.869-2.674,4.732,4.732,0,0,1,1.482-3.576,5.2,5.2,0,0,1,3.679-1.413A5.019,5.019,0,0,1,629.6,580.8Z" transform="translate(-555.741 -567.775)" fill="#fff"/>
    <path id="Path_363" data-name="Path 363" d="M736.054,545.689h-4.99L729,543.578a13.263,13.263,0,0,1-7.323,2.112,13.7,13.7,0,0,1-9.282-3.542,12.7,12.7,0,0,1-4.411-9.962,13.113,13.113,0,0,1,4.172-9.912,13.73,13.73,0,0,1,18.546-.477,13.219,13.219,0,0,1,4.768,10.576,12.823,12.823,0,0,1-3.764,9.077Zm-10.916-10.882,3.815,3.8a9,9,0,0,0,2.52-6.489,9.734,9.734,0,0,0-2.81-7.1,9.392,9.392,0,0,0-6.982-2.861,9.176,9.176,0,0,0-6.948,2.861,9.958,9.958,0,0,0-2.742,7.2,9.217,9.217,0,0,0,2.827,6.965,9.506,9.506,0,0,0,6.727,2.793,9.28,9.28,0,0,0,4.649-1.175l-6.182-5.995Z" transform="translate(-630.272 -518.424)" fill="#fff"/>
  </g>
  <g id="Group_72" data-name="Group 72" transform="translate(2.53 69.03)">
    <path id="Path_364" data-name="Path 364" d="M250.5,719.716a.613.613,0,0,1,.182-.441.625.625,0,0,1,.892,0,.633.633,0,1,1-1.074.441Zm.2,2.015h.859v5.155H250.7Z" transform="translate(-250.503 -718.559)" fill="#fff"/>
    <path id="Path_365" data-name="Path 365" d="M268.719,735.675q0-.353-.022-.661t-.022-.562h.815q0,.209.011.419t.011.43h.022a1.48,1.48,0,0,1,.248-.364,1.788,1.788,0,0,1,.38-.314,2.026,2.026,0,0,1,.5-.22,2.057,2.057,0,0,1,.595-.083,2.266,2.266,0,0,1,.876.154,1.652,1.652,0,0,1,.611.429,1.746,1.746,0,0,1,.358.667,3,3,0,0,1,.116.854v3.183h-.859v-3.095a1.649,1.649,0,0,0-.287-1.025,1.052,1.052,0,0,0-.892-.374,1.676,1.676,0,0,0-.722.143,1.277,1.277,0,0,0-.5.408,1.82,1.82,0,0,0-.286.628,3.22,3.22,0,0,0-.094.8v2.511h-.859Z" transform="translate(-265.679 -731.28)" fill="#fff"/>
    <path id="Path_366" data-name="Path 366" d="M307.12,728.428H305.6v2.577q0,.254.011.468a.965.965,0,0,0,.088.374.589.589,0,0,0,.231.254.856.856,0,0,0,.441.094,1.777,1.777,0,0,0,.386-.044,1.6,1.6,0,0,0,.374-.132l.033.782a1.97,1.97,0,0,1-.49.143,3.21,3.21,0,0,1-.512.044,1.861,1.861,0,0,1-.738-.121,1,1,0,0,1-.429-.341,1.269,1.269,0,0,1-.2-.545,4.82,4.82,0,0,1-.049-.722v-2.831h-1.123V727.7h1.123v-1.465h.859V727.7h1.52Z" transform="translate(-294.862 -724.529)" fill="#fff"/>
    <path id="Path_367" data-name="Path 367" d="M336.045,738.671a2.616,2.616,0,0,1-1.013.831,3.213,3.213,0,0,1-1.278.237,2.668,2.668,0,0,1-1.09-.215,2.458,2.458,0,0,1-.821-.578,2.538,2.538,0,0,1-.518-.859,3.049,3.049,0,0,1-.182-1.057,2.953,2.953,0,0,1,.2-1.1,2.537,2.537,0,0,1,.551-.859,2.476,2.476,0,0,1,.837-.556,2.77,2.77,0,0,1,1.057-.2,2.635,2.635,0,0,1,.991.182,2.146,2.146,0,0,1,.777.529,2.377,2.377,0,0,1,.5.848,3.429,3.429,0,0,1,.176,1.14v.276h-4.163a1.806,1.806,0,0,0,.16.633,1.834,1.834,0,0,0,.358.529,1.651,1.651,0,0,0,.518.358,1.581,1.581,0,0,0,.65.132,2.055,2.055,0,0,0,.947-.2,2.152,2.152,0,0,0,.694-.584Zm-.738-2.1a1.481,1.481,0,0,0-.429-1.057,1.544,1.544,0,0,0-1.123-.4,1.588,1.588,0,0,0-1.685,1.454Z" transform="translate(-317.85 -731.28)" fill="#fff"/>
    <path id="Path_368" data-name="Path 368" d="M372.233,715.881h.859v8.327h-.859Z" transform="translate(-352.212 -715.881)" fill="#fff"/>
    <path id="Path_369" data-name="Path 369" d="M390,715.881h.859v8.327H390Z" transform="translate(-367.06 -715.881)" fill="#fff"/>
    <path id="Path_370" data-name="Path 370" d="M406.572,719.716a.612.612,0,0,1,.182-.441.625.625,0,0,1,.892,0,.633.633,0,1,1-1.074.441Zm.2,2.015h.859v5.155h-.859Z" transform="translate(-380.903 -718.559)" fill="#fff"/>
    <path id="Path_371" data-name="Path 371" d="M428.648,739.376a2.93,2.93,0,0,1-.722,2.142,2.8,2.8,0,0,1-2.087.733,4.028,4.028,0,0,1-1.371-.22,3.241,3.241,0,0,1-1.162-.76l.617-.705a3,3,0,0,0,.865.666,2.647,2.647,0,0,0,2,.055,1.509,1.509,0,0,0,.6-.463,1.764,1.764,0,0,0,.308-.666,3.409,3.409,0,0,0,.088-.782v-.661h-.022a1.866,1.866,0,0,1-.8.727,2.373,2.373,0,0,1-1.013.231,3.03,3.03,0,0,1-1.112-.2,2.591,2.591,0,0,1-.87-.551,2.438,2.438,0,0,1-.562-.837,2.766,2.766,0,0,1-.2-1.057,3.09,3.09,0,0,1,.2-1.135,2.375,2.375,0,0,1,.556-.854,2.441,2.441,0,0,1,.865-.534,3.215,3.215,0,0,1,1.123-.187,2.342,2.342,0,0,1,.529.061,2.2,2.2,0,0,1,.512.187,1.828,1.828,0,0,1,.446.319,1.736,1.736,0,0,1,.331.446h.022v-.881h.859Zm-4.516-2.346a1.83,1.83,0,0,0,1.112,1.707,1.756,1.756,0,0,0,.7.143,1.884,1.884,0,0,0,.782-.154,1.731,1.731,0,0,0,.936-1.008,2.082,2.082,0,0,0,.121-.711,2.137,2.137,0,0,0-.132-.765,1.772,1.772,0,0,0-.375-.6,1.654,1.654,0,0,0-.584-.391,1.985,1.985,0,0,0-.749-.138,1.817,1.817,0,0,0-.743.149,1.7,1.7,0,0,0-.573.408,1.872,1.872,0,0,0-.369.606A2.1,2.1,0,0,0,424.132,737.03Z" transform="translate(-394.805 -731.28)" fill="#fff"/>
    <path id="Path_372" data-name="Path 372" d="M470.6,738.671a2.616,2.616,0,0,1-1.013.831,3.213,3.213,0,0,1-1.278.237,2.668,2.668,0,0,1-1.09-.215,2.458,2.458,0,0,1-.82-.578,2.535,2.535,0,0,1-.518-.859,3.049,3.049,0,0,1-.182-1.057,2.953,2.953,0,0,1,.2-1.1,2.534,2.534,0,0,1,.551-.859,2.476,2.476,0,0,1,.837-.556,2.771,2.771,0,0,1,1.057-.2,2.636,2.636,0,0,1,.991.182,2.145,2.145,0,0,1,.776.529,2.378,2.378,0,0,1,.5.848,3.434,3.434,0,0,1,.176,1.14v.276h-4.163a1.808,1.808,0,0,0,.16.633,1.835,1.835,0,0,0,.358.529,1.648,1.648,0,0,0,.518.358,1.58,1.58,0,0,0,.65.132,2.053,2.053,0,0,0,.947-.2,2.151,2.151,0,0,0,.694-.584Zm-.738-2.1a1.482,1.482,0,0,0-.429-1.057,1.544,1.544,0,0,0-1.123-.4,1.588,1.588,0,0,0-1.685,1.454Z" transform="translate(-430.309 -731.28)" fill="#fff"/>
    <path id="Path_373" data-name="Path 373" d="M506.1,735.675q0-.353-.022-.661t-.022-.562h.815q0,.209.011.419t.011.43h.022a1.475,1.475,0,0,1,.248-.364,1.79,1.79,0,0,1,.38-.314,2.032,2.032,0,0,1,.5-.22,2.058,2.058,0,0,1,.595-.083,2.266,2.266,0,0,1,.876.154,1.653,1.653,0,0,1,.611.429,1.748,1.748,0,0,1,.358.667,3,3,0,0,1,.116.854v3.183h-.859v-3.095a1.649,1.649,0,0,0-.286-1.025,1.053,1.053,0,0,0-.892-.374,1.676,1.676,0,0,0-.721.143,1.276,1.276,0,0,0-.5.408,1.824,1.824,0,0,0-.286.628,3.219,3.219,0,0,0-.094.8v2.511H506.1Z" transform="translate(-464.027 -731.28)" fill="#fff"/>
    <path id="Path_374" data-name="Path 374" d="M544.5,728.428h-1.52v2.577q0,.254.011.468a.958.958,0,0,0,.088.374.586.586,0,0,0,.231.254.855.855,0,0,0,.44.094,1.774,1.774,0,0,0,.385-.044,1.606,1.606,0,0,0,.375-.132l.033.782a1.97,1.97,0,0,1-.49.143,3.208,3.208,0,0,1-.512.044,1.861,1.861,0,0,1-.738-.121,1,1,0,0,1-.429-.341,1.273,1.273,0,0,1-.2-.545,4.843,4.843,0,0,1-.05-.722v-2.831H541V727.7h1.123v-1.465h.859V727.7h1.52Z" transform="translate(-493.221 -724.529)" fill="#fff"/>
    <path id="Path_375" data-name="Path 375" d="M589.836,719.716a.613.613,0,0,1,.181-.441.625.625,0,0,1,.892,0,.633.633,0,1,1-1.074.441Zm.2,2.015h.859v5.155h-.859Z" transform="translate(-534.026 -718.559)" fill="#fff"/>
    <path id="Path_376" data-name="Path 376" d="M608.052,735.675q0-.353-.022-.661t-.022-.562h.815q0,.209.011.419t.011.43h.022a1.481,1.481,0,0,1,.248-.364,1.791,1.791,0,0,1,.38-.314,2.031,2.031,0,0,1,.5-.22,2.056,2.056,0,0,1,.595-.083,2.265,2.265,0,0,1,.875.154,1.653,1.653,0,0,1,.611.429,1.75,1.75,0,0,1,.358.667,3,3,0,0,1,.115.854v3.183h-.859v-3.095a1.649,1.649,0,0,0-.286-1.025,1.052,1.052,0,0,0-.892-.374,1.674,1.674,0,0,0-.721.143,1.275,1.275,0,0,0-.5.408,1.827,1.827,0,0,0-.286.628,3.22,3.22,0,0,0-.094.8v2.511h-.859Z" transform="translate(-549.214 -731.28)" fill="#fff"/>
    <path id="Path_377" data-name="Path 377" d="M645.867,740.278h-.947l-2.1-5.155h1l1.608,4.042h.022l1.531-4.042h.925Z" transform="translate(-578.299 -731.951)" fill="#fff"/>
    <path id="Path_378" data-name="Path 378" d="M684.063,738.671a2.614,2.614,0,0,1-1.013.831,3.213,3.213,0,0,1-1.278.237,2.667,2.667,0,0,1-1.09-.215,2.461,2.461,0,0,1-.821-.578,2.539,2.539,0,0,1-.518-.859,3.049,3.049,0,0,1-.182-1.057,2.95,2.95,0,0,1,.2-1.1,2.535,2.535,0,0,1,.551-.859,2.478,2.478,0,0,1,.837-.556,2.771,2.771,0,0,1,1.057-.2,2.637,2.637,0,0,1,.991.182,2.15,2.15,0,0,1,.776.529,2.373,2.373,0,0,1,.5.848,3.432,3.432,0,0,1,.176,1.14v.276h-4.163a1.812,1.812,0,0,0,.16.633,1.841,1.841,0,0,0,.358.529,1.651,1.651,0,0,0,.518.358,1.58,1.58,0,0,0,.65.132,2.053,2.053,0,0,0,.947-.2,2.15,2.15,0,0,0,.694-.584Zm-.738-2.1a1.481,1.481,0,0,0-.43-1.057,1.543,1.543,0,0,0-1.123-.4,1.588,1.588,0,0,0-1.685,1.454Z" transform="translate(-608.667 -731.28)" fill="#fff"/>
    <path id="Path_379" data-name="Path 379" d="M716.992,738.252a2.172,2.172,0,0,0,.556.506,1.432,1.432,0,0,0,.765.187,1.9,1.9,0,0,0,.4-.044,1.205,1.205,0,0,0,.369-.143.819.819,0,0,0,.264-.248.632.632,0,0,0,.1-.358.58.58,0,0,0-.094-.342.824.824,0,0,0-.248-.226,1.421,1.421,0,0,0-.352-.149q-.2-.055-.407-.1-.364-.077-.694-.176a2.257,2.257,0,0,1-.578-.259,1.215,1.215,0,0,1-.4-.413,1.268,1.268,0,0,1-.149-.65,1.3,1.3,0,0,1,.166-.661,1.432,1.432,0,0,1,.44-.474,2.151,2.151,0,0,1,.617-.287,2.519,2.519,0,0,1,.7-.1,2.365,2.365,0,0,1,1.019.221,1.587,1.587,0,0,1,.732.716l-.716.474a1.326,1.326,0,0,0-.435-.446,1.2,1.2,0,0,0-.655-.171,1.525,1.525,0,0,0-.358.044,1.123,1.123,0,0,0-.325.132.772.772,0,0,0-.237.226.545.545,0,0,0-.094.314.4.4,0,0,0,.1.281.917.917,0,0,0,.286.2,2.486,2.486,0,0,0,.419.154,5.02,5.02,0,0,0,.49.11,4.964,4.964,0,0,1,.65.171,1.881,1.881,0,0,1,.54.281,1.243,1.243,0,0,1,.363.44,1.441,1.441,0,0,1,.132.65,1.489,1.489,0,0,1-.176.749,1.459,1.459,0,0,1-.468.5,2.055,2.055,0,0,1-.661.281,3.238,3.238,0,0,1-.754.088,2.9,2.9,0,0,1-1.14-.2,2.069,2.069,0,0,1-.865-.754Z" transform="translate(-639.704 -731.28)" fill="#fff"/>
    <path id="Path_380" data-name="Path 380" d="M749.275,728.428h-1.52v2.577q0,.254.011.468a.968.968,0,0,0,.088.374.59.59,0,0,0,.231.254.855.855,0,0,0,.441.094,1.777,1.777,0,0,0,.385-.044,1.608,1.608,0,0,0,.375-.132l.033.782a1.971,1.971,0,0,1-.49.143,3.205,3.205,0,0,1-.512.044,1.862,1.862,0,0,1-.738-.121,1,1,0,0,1-.429-.341,1.264,1.264,0,0,1-.2-.545,4.771,4.771,0,0,1-.05-.722v-2.831h-1.123V727.7H746.9v-1.465h.859V727.7h1.52Z" transform="translate(-664.358 -724.529)" fill="#fff"/>
    <path id="Path_381" data-name="Path 381" d="M774.434,719.716a.612.612,0,0,1,.182-.441.625.625,0,0,1,.892,0,.633.633,0,1,1-1.074.441Zm.2,2.015h.859v5.155h-.859Z" transform="translate(-688.294 -718.559)" fill="#fff"/>
    <path id="Path_382" data-name="Path 382" d="M792.651,735.675q0-.353-.022-.661t-.022-.562h.815q0,.209.011.419t.011.43h.022a1.482,1.482,0,0,1,.248-.364,1.783,1.783,0,0,1,.38-.314,2.031,2.031,0,0,1,.5-.22,2.059,2.059,0,0,1,.595-.083,2.267,2.267,0,0,1,.876.154,1.651,1.651,0,0,1,.611.429,1.744,1.744,0,0,1,.358.667,3,3,0,0,1,.115.854v3.183h-.859v-3.095a1.648,1.648,0,0,0-.286-1.025,1.053,1.053,0,0,0-.892-.374,1.677,1.677,0,0,0-.722.143,1.277,1.277,0,0,0-.5.408,1.816,1.816,0,0,0-.286.628,3.218,3.218,0,0,0-.094.8v2.511h-.859Z" transform="translate(-703.472 -731.28)" fill="#fff"/>
    <path id="Path_383" data-name="Path 383" d="M835.33,739.376a2.93,2.93,0,0,1-.721,2.142,2.8,2.8,0,0,1-2.088.733,4.029,4.029,0,0,1-1.371-.22,3.242,3.242,0,0,1-1.162-.76l.617-.705a3,3,0,0,0,.865.666,2.647,2.647,0,0,0,2,.055,1.508,1.508,0,0,0,.6-.463,1.762,1.762,0,0,0,.308-.666,3.387,3.387,0,0,0,.088-.782v-.661h-.022a1.865,1.865,0,0,1-.8.727,2.373,2.373,0,0,1-1.013.231,3.031,3.031,0,0,1-1.112-.2,2.59,2.59,0,0,1-.87-.551,2.435,2.435,0,0,1-.562-.837,2.769,2.769,0,0,1-.2-1.057,3.094,3.094,0,0,1,.2-1.135,2.375,2.375,0,0,1,.556-.854,2.442,2.442,0,0,1,.865-.534,3.215,3.215,0,0,1,1.123-.187,2.338,2.338,0,0,1,.529.061,2.2,2.2,0,0,1,.512.187,1.825,1.825,0,0,1,.446.319,1.732,1.732,0,0,1,.331.446h.022v-.881h.859Zm-4.516-2.346a1.83,1.83,0,0,0,1.112,1.707,1.757,1.757,0,0,0,.7.143,1.884,1.884,0,0,0,.782-.154,1.732,1.732,0,0,0,.936-1.008,2.087,2.087,0,0,0,.121-.711,2.133,2.133,0,0,0-.132-.765,1.762,1.762,0,0,0-.375-.6,1.653,1.653,0,0,0-.584-.391,1.984,1.984,0,0,0-.749-.138,1.818,1.818,0,0,0-.743.149,1.7,1.7,0,0,0-.573.408,1.881,1.881,0,0,0-.369.606A2.108,2.108,0,0,0,830.814,737.03Z" transform="translate(-734.608 -731.28)" fill="#fff"/>
  </g>
</svg>
